<svg width="70" height="353" viewBox="0 0 70 353" fill="none" xmlns="http://www.w3.org/2000/svg">
<g filter="url(#filter0_d_1854_19283)">
<path d="M3 3H29C45.5685 3 59 16.4315 59 33V312C59 328.569 45.5685 342 29 342H3V3Z" fill="white"/>
<rect x="23" y="34" width="16" height="16" rx="1" stroke="black" stroke-width="2"/>
<path d="M28.7144 34V50" stroke="black" stroke-width="2"/>
<path d="M34.4283 44.2856L32.4961 42.3535C32.3009 42.1582 32.3009 41.8416 32.4961 41.6464L34.4283 39.7142" stroke="black" stroke-width="2" stroke-linecap="round"/>
<path d="M38.14 312.68C38.14 312.947 38.0733 313.16 37.94 313.32C37.8067 313.48 37.5933 313.613 37.3 313.72L24.86 318.08C24.5533 318.2 24.2933 318.187 24.08 318.04C23.8667 317.88 23.76 317.62 23.76 317.26C23.76 317.007 23.82 316.807 23.94 316.66C24.06 316.513 24.26 316.393 24.54 316.3L36.34 312.28L36.34 313L24.58 308.88C24.3 308.773 24.0933 308.647 23.96 308.5C23.8267 308.353 23.76 308.16 23.76 307.92C23.76 307.667 23.8267 307.473 23.96 307.34C24.0933 307.193 24.3067 307.073 24.6 306.98L36.34 302.94L36.34 303.58L24.54 299.52C24.2733 299.427 24.08 299.307 23.96 299.16C23.8267 299.013 23.76 298.807 23.76 298.54C23.76 298.233 23.8667 298.007 24.08 297.86C24.2933 297.713 24.5533 297.693 24.86 297.8L37.32 302.2C37.6 302.293 37.8067 302.42 37.94 302.58C38.0733 302.74 38.14 302.953 38.14 303.22C38.14 303.5 38.0733 303.72 37.94 303.88C37.8067 304.04 37.5933 304.173 37.3 304.28L26.1 308.18L26.1 307.74L37.32 311.66C37.6 311.767 37.8067 311.9 37.94 312.06C38.0733 312.207 38.14 312.413 38.14 312.68ZM38.18 292.521C38.18 293.481 37.9733 294.314 37.56 295.021C37.1467 295.728 36.56 296.274 35.8 296.661C35.04 297.048 34.1467 297.241 33.12 297.241C32.3467 297.241 31.6533 297.134 31.04 296.921C30.4133 296.694 29.88 296.374 29.44 295.961C29 295.548 28.6667 295.054 28.44 294.481C28.2 293.894 28.08 293.241 28.08 292.521C28.08 291.561 28.2867 290.728 28.7 290.021C29.1133 289.314 29.7 288.768 30.46 288.381C31.2067 287.994 32.0933 287.801 33.12 287.801C33.8933 287.801 34.5933 287.914 35.22 288.141C35.8467 288.354 36.38 288.668 36.82 289.081C37.26 289.494 37.6 289.994 37.84 290.581C38.0667 291.154 38.18 291.801 38.18 292.521ZM36.74 292.521C36.74 291.934 36.6 291.428 36.32 291.001C36.04 290.561 35.6333 290.228 35.1 290.001C34.5667 289.761 33.9067 289.641 33.12 289.641C31.9467 289.641 31.0533 289.901 30.44 290.421C29.8267 290.941 29.52 291.641 29.52 292.521C29.52 293.094 29.66 293.601 29.94 294.041C30.2067 294.468 30.6067 294.801 31.14 295.041C31.6733 295.281 32.3333 295.401 33.12 295.401C34.2933 295.401 35.1933 295.141 35.82 294.621C36.4333 294.088 36.74 293.388 36.74 292.521ZM38.14 284.53C38.14 284.836 38.06 285.07 37.9 285.23C37.74 285.39 37.5067 285.47 37.2 285.47L29.04 285.47C28.7333 285.47 28.5067 285.39 28.36 285.23C28.2 285.07 28.12 284.85 28.12 284.57C28.12 284.29 28.2 284.076 28.36 283.93C28.5067 283.77 28.7333 283.69 29.04 283.69L30.58 283.69L30.58 283.89C29.78 283.676 29.1733 283.276 28.76 282.69C28.3467 282.103 28.1133 281.363 28.06 280.47C28.0467 280.256 28.1 280.083 28.22 279.95C28.3267 279.816 28.5133 279.743 28.78 279.73C29.0333 279.716 29.24 279.776 29.4 279.91C29.5467 280.043 29.6333 280.25 29.66 280.53L29.68 280.89C29.7733 281.77 30.06 282.45 30.54 282.93C31.02 283.396 31.68 283.63 32.52 283.63L37.2 283.63C37.5067 283.63 37.74 283.71 37.9 283.87C38.06 284.016 38.14 284.236 38.14 284.53ZM38.14 277.265C38.14 277.545 38.06 277.765 37.9 277.925C37.74 278.085 37.5067 278.165 37.2 278.165L24.68 278.165C24.3733 278.165 24.1467 278.085 24 277.925C23.84 277.765 23.76 277.545 23.76 277.265C23.76 276.972 23.84 276.745 24 276.585C24.1467 276.425 24.3733 276.345 24.68 276.345L32.56 276.345L32.56 276.305L28.74 272.385C28.54 272.185 28.3867 272.005 28.28 271.845C28.1733 271.685 28.12 271.478 28.12 271.225C28.12 270.972 28.1867 270.778 28.32 270.645C28.44 270.512 28.6 270.445 28.8 270.445C28.9867 270.445 29.1733 270.538 29.36 270.725L33.4 274.885L32.5 274.885L36.88 270.345C37.0667 270.158 37.26 270.072 37.46 270.085C37.66 270.085 37.8267 270.158 37.96 270.305C38.08 270.438 38.14 270.618 38.14 270.845C38.14 271.112 38.0867 271.332 37.98 271.505C37.8733 271.665 37.7067 271.852 37.48 272.065L33.48 276.305L33.48 276.345L37.2 276.345C37.8267 276.345 38.14 276.652 38.14 277.265ZM38.18 264.825C38.18 265.425 38.1133 266.031 37.98 266.645C37.8333 267.245 37.5867 267.811 37.24 268.345C37.1467 268.491 37.0333 268.598 36.9 268.665C36.7533 268.718 36.6133 268.738 36.48 268.725C36.3333 268.698 36.2067 268.638 36.1 268.545C35.9933 268.451 35.9333 268.338 35.92 268.205C35.8933 268.058 35.9267 267.905 36.02 267.745C36.3133 267.225 36.52 266.725 36.64 266.245C36.76 265.751 36.82 265.265 36.82 264.785C36.82 264.051 36.6867 263.498 36.42 263.125C36.1533 262.751 35.8 262.565 35.36 262.565C34.9867 262.565 34.7 262.691 34.5 262.945C34.2867 263.185 34.1267 263.565 34.02 264.085L33.64 265.945C33.4533 266.771 33.1467 267.398 32.72 267.825C32.28 268.238 31.72 268.445 31.04 268.445C30.44 268.445 29.92 268.285 29.48 267.965C29.0267 267.631 28.68 267.171 28.44 266.585C28.2 265.998 28.08 265.325 28.08 264.565C28.08 263.978 28.16 263.425 28.32 262.905C28.4667 262.371 28.6933 261.891 29 261.465C29.0933 261.305 29.2133 261.205 29.36 261.165C29.4933 261.111 29.6333 261.105 29.78 261.145C29.9133 261.171 30.0267 261.231 30.12 261.325C30.2133 261.418 30.2733 261.538 30.3 261.685C30.3133 261.831 30.2733 261.991 30.18 262.165C29.9133 262.551 29.7267 262.951 29.62 263.365C29.5 263.765 29.44 264.165 29.44 264.565C29.44 265.285 29.58 265.831 29.86 266.205C30.14 266.565 30.5067 266.745 30.96 266.745C31.3067 266.745 31.5933 266.638 31.82 266.425C32.0467 266.198 32.2133 265.845 32.32 265.365L32.7 263.505C32.8867 262.638 33.1867 261.985 33.6 261.545C34 261.105 34.5467 260.885 35.24 260.885C36.1467 260.885 36.8667 261.245 37.4 261.965C37.92 262.671 38.18 263.625 38.18 264.825ZM41.74 257.617C41.74 257.897 41.66 258.117 41.5 258.277C41.34 258.437 41.1133 258.517 40.82 258.517L29.04 258.517C28.7333 258.517 28.5067 258.437 28.36 258.277C28.2 258.117 28.12 257.897 28.12 257.617C28.12 257.323 28.2 257.103 28.36 256.957C28.5067 256.797 28.7333 256.717 29.04 256.717L30.86 256.717L30.5 256.937C29.7667 256.723 29.18 256.303 28.74 255.677C28.3 255.05 28.08 254.297 28.08 253.417C28.08 252.55 28.2867 251.797 28.7 251.157C29.1 250.517 29.68 250.017 30.44 249.657C31.1867 249.297 32.08 249.117 33.12 249.117C34.1467 249.117 35.0467 249.297 35.82 249.657C36.58 250.003 37.1667 250.503 37.58 251.157C37.98 251.797 38.18 252.55 38.18 253.417C38.18 254.283 37.96 255.03 37.52 255.657C37.08 256.283 36.5 256.703 35.78 256.917L35.78 256.697L40.82 256.697C41.1133 256.697 41.34 256.777 41.5 256.937C41.66 257.097 41.74 257.323 41.74 257.617ZM36.74 253.837C36.74 253.263 36.6 252.763 36.32 252.337C36.04 251.897 35.6333 251.557 35.1 251.317C34.5667 251.077 33.9067 250.957 33.12 250.957C31.9467 250.957 31.0533 251.217 30.44 251.737C29.8267 252.257 29.52 252.957 29.52 253.837C29.52 254.423 29.66 254.937 29.94 255.377C30.2067 255.803 30.6067 256.137 31.14 256.377C31.6733 256.603 32.3333 256.717 33.12 256.717C34.2933 256.717 35.1933 256.457 35.82 255.937C36.4333 255.417 36.74 254.717 36.74 253.837ZM38.18 243.678C38.18 244.345 38.0467 244.952 37.78 245.498C37.5133 246.032 37.1533 246.452 36.7 246.758C36.2467 247.052 35.74 247.198 35.18 247.198C34.46 247.198 33.8933 247.018 33.48 246.658C33.0667 246.298 32.7733 245.692 32.6 244.838C32.4133 243.985 32.32 242.838 32.32 241.398L32.32 240.458L33.48 240.458L33.48 241.358C33.48 242.385 33.5267 243.198 33.62 243.798C33.7133 244.385 33.88 244.798 34.12 245.038C34.3467 245.278 34.6667 245.398 35.08 245.398C35.6 245.398 36.0267 245.218 36.36 244.858C36.6933 244.485 36.86 243.978 36.86 243.338C36.86 242.832 36.74 242.385 36.5 241.998C36.2467 241.612 35.9133 241.305 35.5 241.078C35.0733 240.852 34.5867 240.738 34.04 240.738L31.74 240.738C30.9533 240.738 30.3867 240.898 30.04 241.218C29.68 241.538 29.5 242.078 29.5 242.838C29.5 243.278 29.56 243.732 29.68 244.198C29.8 244.665 29.9867 245.152 30.24 245.658C30.3333 245.858 30.3667 246.032 30.34 246.178C30.3 246.325 30.22 246.445 30.1 246.538C29.9667 246.618 29.8267 246.665 29.68 246.678C29.52 246.678 29.3667 246.645 29.22 246.578C29.0733 246.498 28.9667 246.365 28.9 246.178C28.6067 245.592 28.4 245.012 28.28 244.438C28.1467 243.852 28.08 243.305 28.08 242.798C28.08 241.932 28.22 241.218 28.5 240.658C28.7667 240.098 29.1867 239.678 29.76 239.398C30.32 239.118 31.04 238.978 31.92 238.978L37.2 238.978C37.5067 238.978 37.74 239.052 37.9 239.198C38.06 239.345 38.14 239.558 38.14 239.838C38.14 240.105 38.06 240.318 37.9 240.478C37.74 240.625 37.5067 240.698 37.2 240.698L35.78 240.698L35.78 240.518C36.2733 240.625 36.7 240.825 37.06 241.118C37.42 241.412 37.7 241.778 37.9 242.218C38.0867 242.645 38.18 243.132 38.18 243.678ZM38.18 231.894C38.18 232.881 37.9733 233.734 37.56 234.454C37.1333 235.174 36.54 235.728 35.78 236.114C35.0067 236.501 34.1 236.694 33.06 236.694C32.2867 236.694 31.5933 236.588 30.98 236.374C30.3667 236.148 29.8467 235.828 29.42 235.414C28.98 235.001 28.6467 234.501 28.42 233.914C28.1933 233.314 28.08 232.641 28.08 231.894C28.08 231.428 28.1533 230.934 28.3 230.414C28.4467 229.894 28.6867 229.414 29.02 228.974C29.1267 228.828 29.2533 228.734 29.4 228.694C29.5333 228.654 29.6733 228.654 29.82 228.694C29.9667 228.721 30.0933 228.788 30.2 228.894C30.2933 228.988 30.3467 229.114 30.36 229.274C30.3733 229.421 30.3267 229.581 30.22 229.754C29.98 230.074 29.8067 230.414 29.7 230.774C29.5933 231.121 29.54 231.454 29.54 231.774C29.54 232.268 29.62 232.708 29.78 233.094C29.94 233.468 30.1733 233.788 30.48 234.054C30.7733 234.308 31.14 234.501 31.58 234.634C32.0067 234.768 32.5067 234.834 33.08 234.834C34.2133 234.834 35.1067 234.568 35.76 234.034C36.4 233.501 36.72 232.748 36.72 231.774C36.72 231.454 36.6733 231.121 36.58 230.774C36.4733 230.428 36.3 230.088 36.06 229.754C35.9533 229.581 35.9133 229.421 35.94 229.274C35.9533 229.128 36.0133 229.008 36.12 228.914C36.2133 228.808 36.3333 228.741 36.48 228.714C36.6133 228.688 36.7533 228.701 36.9 228.754C37.0467 228.794 37.1667 228.888 37.26 229.034C37.58 229.461 37.8133 229.928 37.96 230.434C38.1067 230.941 38.18 231.428 38.18 231.894ZM38.18 222.513C38.18 223.566 37.98 224.473 37.58 225.233C37.1667 225.979 36.5867 226.559 35.84 226.973C35.08 227.386 34.1867 227.593 33.16 227.593C32.1467 227.593 31.26 227.393 30.5 226.993C29.74 226.579 29.1467 226.019 28.72 225.313C28.2933 224.593 28.08 223.773 28.08 222.853C28.08 222.199 28.1933 221.613 28.42 221.093C28.6333 220.559 28.9467 220.106 29.36 219.733C29.7733 219.359 30.28 219.079 30.88 218.893C31.4667 218.693 32.1333 218.593 32.88 218.593C33.0933 218.593 33.26 218.659 33.38 218.793C33.4867 218.913 33.54 219.093 33.54 219.333L33.54 226.173L32.38 226.173L32.38 219.793L32.66 220.133C31.9667 220.133 31.38 220.239 30.9 220.453C30.4067 220.653 30.0333 220.953 29.78 221.353C29.5267 221.739 29.4 222.226 29.4 222.813C29.4 223.453 29.5533 223.999 29.86 224.453C30.1533 224.906 30.5733 225.253 31.12 225.493C31.6533 225.733 32.2733 225.853 32.98 225.853L33.1 225.853C34.3 225.853 35.2067 225.566 35.82 224.993C36.4333 224.419 36.74 223.593 36.74 222.513C36.74 222.086 36.6867 221.653 36.58 221.213C36.4733 220.759 36.28 220.326 36 219.913C35.88 219.713 35.8267 219.533 35.84 219.373C35.84 219.199 35.8933 219.059 36 218.953C36.0933 218.846 36.2133 218.779 36.36 218.753C36.4933 218.726 36.64 218.746 36.8 218.813C36.96 218.879 37.1 219.006 37.22 219.193C37.5267 219.633 37.7667 220.159 37.94 220.773C38.1 221.373 38.18 221.953 38.18 222.513ZM33.42 215.515C33.42 215.728 33.3467 215.908 33.2 216.055C33.0533 216.201 32.8733 216.275 32.66 216.275C32.4467 216.275 32.2733 216.201 32.14 216.055C31.9933 215.908 31.92 215.728 31.92 215.515L31.92 211.055C31.92 210.855 31.9933 210.681 32.14 210.535C32.2733 210.375 32.4467 210.295 32.66 210.295C32.8733 210.295 33.0533 210.375 33.2 210.535C33.3467 210.681 33.42 210.855 33.42 211.055L33.42 215.515ZM38.14 206.44C38.14 206.706 38.06 206.913 37.9 207.06C37.74 207.206 37.5267 207.28 37.26 207.28L24.64 207.28C24.36 207.28 24.1467 207.206 24 207.06C23.84 206.9 23.76 206.686 23.76 206.42C23.76 206.18 23.8067 205.993 23.9 205.86C23.9933 205.713 24.1533 205.58 24.38 205.46L34.44 200.1L34.44 200.72L24.38 195.36C24.1533 195.24 23.9933 195.113 23.9 194.98C23.8067 194.846 23.76 194.66 23.76 194.42C23.76 194.153 23.84 193.946 24 193.8C24.1467 193.653 24.36 193.58 24.64 193.58L37.26 193.58C37.5267 193.58 37.74 193.653 37.9 193.8C38.06 193.933 38.14 194.14 38.14 194.42C38.14 194.7 38.06 194.913 37.9 195.06C37.74 195.193 37.5267 195.26 37.26 195.26L26.48 195.26L26.48 194.82L35.46 199.62C35.6333 199.726 35.7667 199.84 35.86 199.96C35.94 200.066 35.98 200.22 35.98 200.42C35.98 200.606 35.9333 200.766 35.84 200.9C35.7467 201.02 35.62 201.126 35.46 201.22L26.46 206.08L26.46 205.6L37.26 205.6C37.5267 205.6 37.74 205.673 37.9 205.82C38.06 205.953 38.14 206.16 38.14 206.44ZM38.18 185.892C38.18 186.945 37.98 187.852 37.58 188.612C37.1667 189.358 36.5867 189.938 35.84 190.352C35.08 190.765 34.1867 190.972 33.16 190.972C32.1467 190.972 31.26 190.772 30.5 190.372C29.74 189.958 29.1467 189.398 28.72 188.692C28.2933 187.972 28.08 187.152 28.08 186.232C28.08 185.578 28.1933 184.992 28.42 184.472C28.6333 183.938 28.9467 183.485 29.36 183.112C29.7733 182.738 30.28 182.458 30.88 182.272C31.4667 182.072 32.1333 181.972 32.88 181.972C33.0933 181.972 33.26 182.038 33.38 182.172C33.4867 182.292 33.54 182.472 33.54 182.712L33.54 189.552L32.38 189.552L32.38 183.172L32.66 183.512C31.9667 183.512 31.38 183.618 30.9 183.832C30.4067 184.032 30.0333 184.332 29.78 184.732C29.5267 185.118 29.4 185.605 29.4 186.192C29.4 186.832 29.5533 187.378 29.86 187.832C30.1533 188.285 30.5733 188.632 31.12 188.872C31.6533 189.112 32.2733 189.232 32.98 189.232L33.1 189.232C34.3 189.232 35.2067 188.945 35.82 188.372C36.4333 187.798 36.74 186.972 36.74 185.892C36.74 185.465 36.6867 185.032 36.58 184.592C36.4733 184.138 36.28 183.705 36 183.292C35.88 183.092 35.8267 182.912 35.84 182.752C35.84 182.578 35.8933 182.438 36 182.332C36.0933 182.225 36.2133 182.158 36.36 182.132C36.4933 182.105 36.64 182.125 36.8 182.192C36.96 182.258 37.1 182.385 37.22 182.572C37.5267 183.012 37.7667 183.538 37.94 184.152C38.1 184.752 38.18 185.332 38.18 185.892ZM38.14 178.808C38.14 179.088 38.06 179.308 37.9 179.468C37.74 179.628 37.5067 179.708 37.2 179.708L29.04 179.708C28.7333 179.708 28.5067 179.628 28.36 179.468C28.2 179.308 28.12 179.088 28.12 178.808C28.12 178.528 28.2 178.315 28.36 178.168C28.5067 178.008 28.7333 177.928 29.04 177.928L30.68 177.928L30.38 178.148C29.62 177.868 29.0467 177.415 28.66 176.788C28.2733 176.148 28.08 175.421 28.08 174.608C28.08 173.821 28.22 173.175 28.5 172.668C28.78 172.161 29.2067 171.781 29.78 171.528C30.3533 171.275 31.08 171.148 31.96 171.148L37.2 171.148C37.5067 171.148 37.74 171.228 37.9 171.388C38.06 171.535 38.14 171.755 38.14 172.048C38.14 172.341 38.06 172.568 37.9 172.728C37.74 172.888 37.5067 172.968 37.2 172.968L32.06 172.968C31.1933 172.968 30.56 173.135 30.16 173.468C29.76 173.801 29.56 174.335 29.56 175.068C29.56 175.921 29.8267 176.608 30.36 177.128C30.88 177.635 31.5867 177.888 32.48 177.888L37.2 177.888C37.8267 177.888 38.14 178.195 38.14 178.808ZM38.18 164.783C38.18 165.569 38.0333 166.229 37.74 166.763C37.4467 167.283 37.0133 167.669 36.44 167.923C35.8667 168.176 35.1467 168.303 34.28 168.303L29.04 168.303C28.7333 168.303 28.5067 168.229 28.36 168.083C28.2 167.923 28.12 167.696 28.12 167.403C28.12 167.109 28.2 166.883 28.36 166.723C28.5067 166.563 28.7333 166.483 29.04 166.483L34.28 166.483C35.1067 166.483 35.72 166.316 36.12 165.983C36.5067 165.649 36.7 165.123 36.7 164.403C36.7 163.603 36.4333 162.956 35.9 162.463C35.3667 161.956 34.66 161.703 33.78 161.703L29.04 161.703C28.7333 161.703 28.5067 161.629 28.36 161.483C28.2 161.323 28.12 161.096 28.12 160.803C28.12 160.509 28.2 160.283 28.36 160.123C28.5067 159.963 28.7333 159.883 29.04 159.883L37.2 159.883C37.8267 159.883 38.14 160.176 38.14 160.763C38.14 161.056 38.06 161.283 37.9 161.443C37.74 161.589 37.5067 161.663 37.2 161.663L35.46 161.663L35.8 161.403C36.5733 161.669 37.1667 162.103 37.58 162.703C37.98 163.289 38.18 163.983 38.18 164.783ZM25.92 162.303C25.92 162.623 25.8333 162.869 25.66 163.043C25.4867 163.216 25.24 163.303 24.92 163.303C24.6 163.303 24.36 163.216 24.2 163.043C24.0267 162.869 23.94 162.623 23.94 162.303C23.94 161.983 24.0267 161.736 24.2 161.563C24.36 161.389 24.6 161.303 24.92 161.303C25.24 161.303 25.4867 161.389 25.66 161.563C25.8333 161.723 25.92 161.969 25.92 162.303ZM25.92 165.843C25.92 166.163 25.8333 166.416 25.66 166.603C25.4867 166.776 25.24 166.863 24.92 166.863C24.6 166.863 24.36 166.776 24.2 166.603C24.0267 166.416 23.94 166.163 23.94 165.843C23.94 165.523 24.0267 165.276 24.2 165.103C24.36 164.929 24.6 164.843 24.92 164.843C25.24 164.843 25.4867 164.929 25.66 165.103C25.8333 165.276 25.92 165.523 25.92 165.843ZM38.18 148.379C38.18 148.979 38.1133 149.586 37.98 150.199C37.8333 150.799 37.5867 151.366 37.24 151.899C37.1467 152.046 37.0333 152.153 36.9 152.219C36.7533 152.273 36.6133 152.293 36.48 152.279C36.3333 152.253 36.2067 152.193 36.1 152.099C35.9933 152.006 35.9333 151.893 35.92 151.759C35.8933 151.613 35.9267 151.459 36.02 151.299C36.3133 150.779 36.52 150.279 36.64 149.799C36.76 149.306 36.82 148.819 36.82 148.339C36.82 147.606 36.6867 147.053 36.42 146.679C36.1533 146.306 35.8 146.119 35.36 146.119C34.9867 146.119 34.7 146.246 34.5 146.499C34.2867 146.739 34.1267 147.119 34.02 147.639L33.64 149.499C33.4533 150.326 33.1467 150.953 32.72 151.379C32.28 151.793 31.72 151.999 31.04 151.999C30.44 151.999 29.92 151.839 29.48 151.519C29.0267 151.186 28.68 150.726 28.44 150.139C28.2 149.553 28.08 148.879 28.08 148.119C28.08 147.533 28.16 146.979 28.32 146.459C28.4667 145.926 28.6933 145.446 29 145.019C29.0933 144.859 29.2133 144.759 29.36 144.719C29.4933 144.666 29.6333 144.659 29.78 144.699C29.9133 144.726 30.0267 144.786 30.12 144.879C30.2133 144.973 30.2733 145.093 30.3 145.239C30.3133 145.386 30.2733 145.546 30.18 145.719C29.9133 146.106 29.7267 146.506 29.62 146.919C29.5 147.319 29.44 147.719 29.44 148.119C29.44 148.839 29.58 149.386 29.86 149.759C30.14 150.119 30.5067 150.299 30.96 150.299C31.3067 150.299 31.5933 150.193 31.82 149.979C32.0467 149.753 32.2133 149.399 32.32 148.919L32.7 147.059C32.8867 146.193 33.1867 145.539 33.6 145.099C34 144.659 34.5467 144.439 35.24 144.439C36.1467 144.439 36.8667 144.799 37.4 145.519C37.92 146.226 38.18 147.179 38.18 148.379ZM38.18 137.851C38.18 138.838 37.9733 139.691 37.56 140.411C37.1333 141.131 36.54 141.685 35.78 142.071C35.0067 142.458 34.1 142.651 33.06 142.651C32.2867 142.651 31.5933 142.545 30.98 142.331C30.3667 142.105 29.8467 141.785 29.42 141.371C28.98 140.958 28.6467 140.458 28.42 139.871C28.1933 139.271 28.08 138.598 28.08 137.851C28.08 137.385 28.1533 136.891 28.3 136.371C28.4467 135.851 28.6867 135.371 29.02 134.931C29.1267 134.785 29.2533 134.691 29.4 134.651C29.5333 134.611 29.6733 134.611 29.82 134.651C29.9667 134.678 30.0933 134.745 30.2 134.851C30.2933 134.945 30.3467 135.071 30.36 135.231C30.3733 135.378 30.3267 135.538 30.22 135.711C29.98 136.031 29.8067 136.371 29.7 136.731C29.5933 137.078 29.54 137.411 29.54 137.731C29.54 138.225 29.62 138.665 29.78 139.051C29.94 139.425 30.1733 139.745 30.48 140.011C30.7733 140.265 31.14 140.458 31.58 140.591C32.0067 140.725 32.5067 140.791 33.08 140.791C34.2133 140.791 35.1067 140.525 35.76 139.991C36.4 139.458 36.72 138.705 36.72 137.731C36.72 137.411 36.6733 137.078 36.58 136.731C36.4733 136.385 36.3 136.045 36.06 135.711C35.9533 135.538 35.9133 135.378 35.94 135.231C35.9533 135.085 36.0133 134.965 36.12 134.871C36.2133 134.765 36.3333 134.698 36.48 134.671C36.6133 134.645 36.7533 134.658 36.9 134.711C37.0467 134.751 37.1667 134.845 37.26 134.991C37.58 135.418 37.8133 135.885 37.96 136.391C38.1067 136.898 38.18 137.385 38.18 137.851ZM38.14 131.874C38.14 132.154 38.06 132.374 37.9 132.534C37.74 132.694 37.5067 132.774 37.2 132.774L24.68 132.774C24.3733 132.774 24.1467 132.694 24 132.534C23.84 132.374 23.76 132.154 23.76 131.874C23.76 131.581 23.84 131.354 24 131.194C24.1467 131.034 24.3733 130.954 24.68 130.954L30.38 130.954L30.38 131.214C29.62 130.934 29.0467 130.481 28.66 129.854C28.2733 129.214 28.08 128.488 28.08 127.674C28.08 126.888 28.2267 126.241 28.52 125.734C28.8 125.228 29.2267 124.848 29.8 124.594C30.3733 124.341 31.0933 124.214 31.96 124.214L37.2 124.214C37.5067 124.214 37.74 124.294 37.9 124.454C38.06 124.601 38.14 124.821 38.14 125.114C38.14 125.408 38.06 125.634 37.9 125.794C37.74 125.954 37.5067 126.034 37.2 126.034L32.06 126.034C31.1933 126.034 30.56 126.201 30.16 126.534C29.76 126.868 29.56 127.401 29.56 128.134C29.56 128.988 29.8267 129.674 30.36 130.194C30.88 130.701 31.5867 130.954 32.48 130.954L37.2 130.954C37.8267 130.954 38.14 131.261 38.14 131.874ZM38.18 118.269C38.18 119.269 37.8867 120.029 37.3 120.549C36.7 121.069 35.84 121.329 34.72 121.329L24.68 121.329C24.3733 121.329 24.1467 121.249 24 121.089C23.84 120.929 23.76 120.709 23.76 120.429C23.76 120.136 23.84 119.909 24 119.749C24.1467 119.589 24.3733 119.509 24.68 119.509L34.58 119.509C35.2733 119.509 35.7933 119.369 36.14 119.089C36.4733 118.796 36.64 118.382 36.64 117.849C36.64 117.729 36.64 117.622 36.64 117.529C36.6267 117.436 36.6133 117.342 36.6 117.249C36.5867 117.102 36.6267 116.996 36.72 116.929C36.8133 116.862 37 116.829 37.28 116.829C37.5333 116.829 37.7333 116.889 37.88 117.009C38.0133 117.116 38.1 117.296 38.14 117.549C38.1533 117.669 38.16 117.789 38.16 117.909C38.1733 118.029 38.18 118.149 38.18 118.269ZM38.1 114.413C38.1 114.693 38.0133 114.913 37.84 115.073C37.6667 115.233 37.4267 115.313 37.12 115.313L29.14 115.313C28.82 115.313 28.58 115.233 28.42 115.073C28.2467 114.913 28.16 114.693 28.16 114.413C28.16 114.12 28.2467 113.893 28.42 113.733C28.58 113.573 28.82 113.493 29.14 113.493L37.12 113.493C37.4267 113.493 37.6667 113.573 37.84 113.733C38.0133 113.88 38.1 114.107 38.1 114.413ZM26 114.413C26 114.773 25.9067 115.06 25.72 115.273C25.52 115.473 25.26 115.573 24.94 115.573C24.5933 115.573 24.3333 115.473 24.16 115.273C23.9733 115.06 23.88 114.773 23.88 114.413C23.88 114.027 23.9733 113.74 24.16 113.553C24.3333 113.353 24.5933 113.253 24.94 113.253C25.26 113.253 25.52 113.353 25.72 113.553C25.9067 113.74 26 114.027 26 114.413ZM38.18 106.067C38.18 107.121 37.98 108.027 37.58 108.787C37.1667 109.534 36.5867 110.114 35.84 110.527C35.08 110.941 34.1867 111.147 33.16 111.147C32.1467 111.147 31.26 110.947 30.5 110.547C29.74 110.134 29.1467 109.574 28.72 108.867C28.2933 108.147 28.08 107.327 28.08 106.407C28.08 105.754 28.1933 105.167 28.42 104.647C28.6333 104.114 28.9467 103.661 29.36 103.287C29.7733 102.914 30.28 102.634 30.88 102.447C31.4667 102.247 32.1333 102.147 32.88 102.147C33.0933 102.147 33.26 102.214 33.38 102.347C33.4867 102.467 33.54 102.647 33.54 102.887L33.54 109.727L32.38 109.727L32.38 103.347L32.66 103.687C31.9667 103.687 31.38 103.794 30.9 104.007C30.4067 104.207 30.0333 104.507 29.78 104.907C29.5267 105.294 29.4 105.781 29.4 106.367C29.4 107.007 29.5533 107.554 29.86 108.007C30.1533 108.461 30.5733 108.807 31.12 109.047C31.6533 109.287 32.2733 109.407 32.98 109.407L33.1 109.407C34.3 109.407 35.2067 109.121 35.82 108.547C36.4333 107.974 36.74 107.147 36.74 106.067C36.74 105.641 36.6867 105.207 36.58 104.767C36.4733 104.314 36.28 103.881 36 103.467C35.88 103.267 35.8267 103.087 35.84 102.927C35.84 102.754 35.8933 102.614 36 102.507C36.0933 102.401 36.2133 102.334 36.36 102.307C36.4933 102.281 36.64 102.301 36.8 102.367C36.96 102.434 37.1 102.561 37.22 102.747C37.5267 103.187 37.7667 103.714 37.94 104.327C38.1 104.927 38.18 105.507 38.18 106.067ZM38.18 93.1237C38.18 93.6971 38.1 94.2837 37.94 94.8837C37.78 95.4704 37.54 95.9971 37.22 96.4637C37.1267 96.6237 37.0067 96.7304 36.86 96.7837C36.7133 96.8371 36.5667 96.8504 36.42 96.8237C36.2733 96.7971 36.1467 96.7371 36.04 96.6437C35.9333 96.5371 35.8733 96.4104 35.86 96.2637C35.8333 96.1171 35.8733 95.9571 35.98 95.7837C36.26 95.3437 36.46 94.8904 36.58 94.4237C36.7 93.9437 36.76 93.5037 36.76 93.1037C36.76 92.4904 36.6333 92.0104 36.38 91.6637C36.1133 91.3171 35.7533 91.1437 35.3 91.1437C34.9267 91.1437 34.6133 91.2971 34.36 91.6037C34.1067 91.8971 33.8667 92.4304 33.64 93.2037C33.3067 94.2704 32.9267 95.0171 32.5 95.4437C32.0733 95.8704 31.54 96.0837 30.9 96.0837C30.62 96.0837 30.3533 96.0437 30.1 95.9637C29.8333 95.8704 29.56 95.7104 29.28 95.4837C28.9867 95.2571 28.6667 94.9504 28.32 94.5637C27.9733 94.1637 27.66 93.8837 27.38 93.7237C27.1 93.5637 26.8 93.4837 26.48 93.4837C26.0533 93.4837 25.72 93.6371 25.48 93.9437C25.24 94.2371 25.12 94.6637 25.12 95.2237C25.12 96.1437 25.3933 96.8504 25.94 97.3437C26.4867 97.8237 27.26 98.0637 28.26 98.0637L37.2 98.0637C37.5067 98.0637 37.74 98.1437 37.9 98.3037C38.06 98.4637 38.14 98.6904 38.14 98.9837C38.14 99.2637 38.06 99.4837 37.9 99.6437C37.74 99.8037 37.5067 99.8837 37.2 99.8837L28.5 99.8837C26.98 99.8837 25.8067 99.4771 24.98 98.6637C24.14 97.8504 23.72 96.7037 23.72 95.2237C23.72 94.4904 23.8267 93.8637 24.04 93.3437C24.2533 92.8237 24.5533 92.4237 24.94 92.1437C25.3267 91.8637 25.7933 91.7237 26.34 91.7237C26.8333 91.7237 27.28 91.8371 27.68 92.0637C28.08 92.2904 28.52 92.6704 29 93.2037C29.2667 93.5104 29.5 93.7504 29.7 93.9237C29.8867 94.0971 30.06 94.2171 30.22 94.2837C30.3667 94.3371 30.5333 94.3637 30.72 94.3637C31.0533 94.3637 31.34 94.2171 31.58 93.9237C31.82 93.6171 32.06 93.0704 32.3 92.2837C32.62 91.2571 33.0133 90.5237 33.48 90.0837C33.9333 89.6437 34.5133 89.4237 35.22 89.4237C35.82 89.4237 36.34 89.5771 36.78 89.8837C37.22 90.1904 37.5667 90.6237 37.82 91.1837C38.06 91.7437 38.18 92.3904 38.18 93.1237ZM38.18 82.9033C38.18 83.9566 37.98 84.8633 37.58 85.6233C37.1667 86.3699 36.5867 86.9499 35.84 87.3633C35.08 87.7766 34.1867 87.9833 33.16 87.9833C32.1467 87.9833 31.26 87.7833 30.5 87.3833C29.74 86.9699 29.1467 86.4099 28.72 85.7033C28.2933 84.9833 28.08 84.1633 28.08 83.2433C28.08 82.5899 28.1933 82.0033 28.42 81.4833C28.6333 80.9499 28.9467 80.4966 29.36 80.1233C29.7733 79.7499 30.28 79.4699 30.88 79.2833C31.4667 79.0833 32.1333 78.9833 32.88 78.9833C33.0933 78.9833 33.26 79.0499 33.38 79.1833C33.4867 79.3033 33.54 79.4833 33.54 79.7233L33.54 86.5633L32.38 86.5633L32.38 80.1833L32.66 80.5233C31.9667 80.5233 31.38 80.6299 30.9 80.8433C30.4067 81.0433 30.0333 81.3433 29.78 81.7433C29.5267 82.1299 29.4 82.6166 29.4 83.2033C29.4 83.8433 29.5533 84.3899 29.86 84.8433C30.1533 85.2966 30.5733 85.6433 31.12 85.8833C31.6533 86.1233 32.2733 86.2433 32.98 86.2433L33.1 86.2433C34.3 86.2433 35.2067 85.9566 35.82 85.3833C36.4333 84.8099 36.74 83.9833 36.74 82.9033C36.74 82.4766 36.6867 82.0433 36.58 81.6033C36.4733 81.1499 36.28 80.7166 36 80.3033C35.88 80.1033 35.8267 79.9233 35.84 79.7633C35.84 79.5899 35.8933 79.4499 36 79.3433C36.0933 79.2366 36.2133 79.1699 36.36 79.1433C36.4933 79.1166 36.64 79.1366 36.8 79.2033C36.96 79.2699 37.1 79.3966 37.22 79.5833C37.5267 80.0233 37.7667 80.5499 37.94 81.1633C38.1 81.7633 38.18 82.3433 38.18 82.9033ZM38.14 75.8197C38.14 76.0997 38.06 76.3197 37.9 76.4797C37.74 76.6397 37.5067 76.7197 37.2 76.7197L29.04 76.7197C28.7333 76.7197 28.5067 76.6397 28.36 76.4797C28.2 76.3197 28.12 76.0997 28.12 75.8197C28.12 75.5397 28.2 75.3264 28.36 75.1797C28.5067 75.0197 28.7333 74.9397 29.04 74.9397L30.68 74.9397L30.38 75.1597C29.62 74.8797 29.0467 74.4264 28.66 73.7997C28.2733 73.1597 28.08 72.433 28.08 71.6197C28.08 70.833 28.22 70.1864 28.5 69.6797C28.78 69.173 29.2067 68.793 29.78 68.5397C30.3533 68.2864 31.08 68.1597 31.96 68.1597L37.2 68.1597C37.5067 68.1597 37.74 68.2397 37.9 68.3997C38.06 68.5464 38.14 68.7664 38.14 69.0597C38.14 69.353 38.06 69.5797 37.9 69.7397C37.74 69.8997 37.5067 69.9797 37.2 69.9797L32.06 69.9797C31.1933 69.9797 30.56 70.1464 30.16 70.4797C29.76 70.813 29.56 71.3464 29.56 72.0797C29.56 72.933 29.8267 73.6197 30.36 74.1397C30.88 74.6464 31.5867 74.8997 32.48 74.8997L37.2 74.8997C37.8267 74.8997 38.14 75.2064 38.14 75.8197Z" fill="black"/>
</g>
<defs>
<filter id="filter0_d_1854_19283" x="0" y="0" width="70" height="353" filterUnits="userSpaceOnUse" color-interpolation-filters="sRGB">
<feFlood flood-opacity="0" result="BackgroundImageFix"/>
<feColorMatrix in="SourceAlpha" type="matrix" values="0 0 0 0 0 0 0 0 0 0 0 0 0 0 0 0 0 0 127 0" result="hardAlpha"/>
<feOffset dx="4" dy="4"/>
<feGaussianBlur stdDeviation="3.5"/>
<feComposite in2="hardAlpha" operator="out"/>
<feColorMatrix type="matrix" values="0 0 0 0 0 0 0 0 0 0 0 0 0 0 0 0 0 0 0.2 0"/>
<feBlend mode="normal" in2="BackgroundImageFix" result="effect1_dropShadow_1854_19283"/>
<feBlend mode="normal" in="SourceGraphic" in2="effect1_dropShadow_1854_19283" result="shape"/>
</filter>
</defs>
</svg>
