<svg width="74" height="353" viewBox="0 0 74 353" fill="none" xmlns="http://www.w3.org/2000/svg">
<g filter="url(#filter0_d_1854_19285)">
<path d="M3 3H33C49.5685 3 63 16.4315 63 33V312C63 328.569 49.5685 342 33 342H3V3Z" fill="white"/>
<rect x="25" y="31" width="16" height="16" rx="1" stroke="#444DF2" stroke-width="2.5"/>
<path d="M30.7144 31V47" stroke="#444DF2" stroke-width="2.5"/>
<path d="M36.4283 41.2856L34.4961 39.3535C34.3009 39.1582 34.3009 38.8416 34.4961 38.6464L36.4283 36.7142" stroke="#444DF2" stroke-width="2.5" stroke-linecap="round"/>
<path d="M40.16 315.5C40.16 315.86 40.0733 316.153 39.9 316.38C39.7267 316.593 39.4533 316.767 39.08 316.9L27.26 321.08C26.8333 321.227 26.4733 321.2 26.18 321C25.8867 320.787 25.74 320.433 25.74 319.94C25.74 319.58 25.8267 319.3 26 319.1C26.16 318.9 26.42 318.74 26.78 318.62L37.46 315.02L37.46 315.82L26.8 312.06C26.44 311.927 26.1733 311.76 26 311.56C25.8267 311.36 25.74 311.1 25.74 310.78C25.74 310.46 25.8267 310.207 26 310.02C26.1733 309.833 26.4467 309.673 26.82 309.54L37.46 305.9L37.46 306.6L26.78 302.94C26.4333 302.82 26.1733 302.66 26 302.46C25.8267 302.26 25.74 301.987 25.74 301.64C25.74 301.213 25.8867 300.9 26.18 300.7C26.4733 300.5 26.8333 300.473 27.26 300.62L39.1 304.84C39.46 304.973 39.7267 305.147 39.9 305.36C40.0733 305.573 40.16 305.86 40.16 306.22C40.16 306.58 40.0733 306.867 39.9 307.08C39.7267 307.293 39.4533 307.467 39.08 307.6L29.16 311.08L29.16 310.62L39.1 314.14C39.46 314.273 39.7267 314.447 39.9 314.66C40.0733 314.86 40.16 315.14 40.16 315.5ZM40.2 295.224C40.2 296.238 39.9933 297.118 39.58 297.864C39.1667 298.611 38.58 299.191 37.82 299.604C37.0467 300.018 36.14 300.224 35.1 300.224C34.3133 300.224 33.6133 300.111 33 299.884C32.3733 299.644 31.84 299.304 31.4 298.864C30.9467 298.424 30.6067 297.898 30.38 297.284C30.14 296.671 30.02 295.984 30.02 295.224C30.02 294.211 30.2267 293.331 30.64 292.584C31.0533 291.838 31.64 291.258 32.4 290.844C33.16 290.431 34.06 290.224 35.1 290.224C35.8867 290.224 36.5933 290.344 37.22 290.584C37.8467 290.811 38.3867 291.144 38.84 291.584C39.28 292.024 39.62 292.551 39.86 293.164C40.0867 293.778 40.2 294.464 40.2 295.224ZM38.3 295.224C38.3 294.731 38.18 294.298 37.94 293.924C37.7 293.551 37.3467 293.264 36.88 293.064C36.4 292.851 35.8067 292.744 35.1 292.744C34.0333 292.744 33.24 292.971 32.72 293.424C32.1867 293.878 31.92 294.478 31.92 295.224C31.92 295.718 32.04 296.151 32.28 296.524C32.5067 296.898 32.86 297.191 33.34 297.404C33.8067 297.604 34.3933 297.704 35.1 297.704C36.1533 297.704 36.9533 297.478 37.5 297.024C38.0333 296.571 38.3 295.971 38.3 295.224ZM40.16 286.881C40.16 287.294 40.0533 287.614 39.84 287.841C39.6133 288.054 39.2933 288.161 38.88 288.161L31.32 288.161C30.9067 288.161 30.5933 288.054 30.38 287.841C30.1667 287.628 30.06 287.328 30.06 286.941C30.06 286.554 30.1667 286.254 30.38 286.041C30.5933 285.828 30.9067 285.721 31.32 285.721L32.58 285.721L32.58 285.921C31.78 285.734 31.1733 285.368 30.76 284.821C30.3467 284.274 30.1 283.548 30.02 282.641C29.9933 282.361 30.0667 282.141 30.24 281.981C30.4 281.808 30.6533 281.708 31 281.681C31.3333 281.654 31.6067 281.734 31.82 281.921C32.02 282.094 32.14 282.361 32.18 282.721L32.22 283.161C32.3 283.974 32.5533 284.588 32.98 285.001C33.3933 285.414 33.98 285.621 34.74 285.621L38.88 285.621C39.2933 285.621 39.6133 285.728 39.84 285.941C40.0533 286.154 40.16 286.468 40.16 286.881ZM40.16 279.089C40.16 279.489 40.0533 279.796 39.84 280.009C39.6133 280.222 39.2933 280.329 38.88 280.329L27 280.329C26.5867 280.329 26.2733 280.222 26.06 280.009C25.8467 279.796 25.74 279.489 25.74 279.089C25.74 278.689 25.8467 278.382 26.06 278.169C26.2733 277.942 26.5867 277.829 27 277.829L34.38 277.829L34.38 277.789L30.9 274.489C30.6333 274.222 30.4267 273.989 30.28 273.789C30.1333 273.589 30.06 273.316 30.06 272.969C30.06 272.622 30.1533 272.362 30.34 272.189C30.5133 272.002 30.7267 271.909 30.98 271.909C31.2333 271.909 31.4867 272.029 31.74 272.269L35.42 275.749L34.38 275.749L38.5 271.929C38.7533 271.689 39.0133 271.582 39.28 271.609C39.5333 271.622 39.7467 271.729 39.92 271.929C40.08 272.129 40.16 272.382 40.16 272.689C40.16 273.062 40.0867 273.362 39.94 273.589C39.7933 273.802 39.5733 274.042 39.28 274.309L35.64 277.789L35.64 277.829L38.88 277.829C39.7333 277.829 40.16 278.249 40.16 279.089ZM40.2 266.182C40.2 266.756 40.14 267.362 40.02 268.002C39.9 268.642 39.6933 269.216 39.4 269.722C39.2667 269.936 39.1133 270.089 38.94 270.182C38.7533 270.262 38.5733 270.296 38.4 270.282C38.2133 270.256 38.0533 270.189 37.92 270.082C37.7867 269.962 37.7 269.816 37.66 269.642C37.62 269.456 37.6533 269.256 37.76 269.042C38.0133 268.509 38.1933 268.009 38.3 267.542C38.3933 267.076 38.44 266.616 38.44 266.162C38.44 265.522 38.3333 265.049 38.12 264.742C37.8933 264.422 37.6 264.262 37.24 264.262C36.9333 264.262 36.7 264.369 36.54 264.582C36.3667 264.782 36.24 265.089 36.16 265.502L35.78 267.502C35.62 268.329 35.32 268.962 34.88 269.402C34.4267 269.829 33.8467 270.042 33.14 270.042C32.5 270.042 31.9467 269.869 31.48 269.522C31.0133 269.162 30.6533 268.669 30.4 268.042C30.1467 267.416 30.02 266.696 30.02 265.882C30.02 265.296 30.0867 264.749 30.22 264.242C30.34 263.722 30.5333 263.222 30.8 262.742C30.9067 262.542 31.0467 262.409 31.22 262.342C31.3933 262.262 31.5733 262.242 31.76 262.282C31.9333 262.322 32.0933 262.402 32.24 262.522C32.3733 262.642 32.46 262.796 32.5 262.982C32.5267 263.156 32.4867 263.356 32.38 263.582C32.1667 263.996 32.0133 264.396 31.92 264.782C31.8267 265.156 31.78 265.516 31.78 265.862C31.78 266.516 31.8933 267.002 32.12 267.322C32.3467 267.629 32.6467 267.782 33.02 267.782C33.3 267.782 33.5333 267.689 33.72 267.502C33.9067 267.316 34.0333 267.029 34.1 266.642L34.48 264.642C34.64 263.776 34.9333 263.122 35.36 262.682C35.7867 262.229 36.36 262.002 37.08 262.002C38.0533 262.002 38.82 262.382 39.38 263.142C39.9267 263.902 40.2 264.916 40.2 266.182ZM43.76 258.757C43.76 259.157 43.6533 259.464 43.44 259.677C43.2267 259.89 42.9133 259.997 42.5 259.997L31.32 259.997C30.9067 259.997 30.5933 259.89 30.38 259.677C30.1667 259.464 30.06 259.164 30.06 258.777C30.06 258.377 30.1667 258.07 30.38 257.857C30.5933 257.644 30.9067 257.537 31.32 257.537L32.88 257.537L32.28 257.757C31.6 257.557 31.0533 257.15 30.64 256.537C30.2267 255.91 30.02 255.184 30.02 254.357C30.02 253.504 30.2267 252.757 30.64 252.117C31.0533 251.464 31.64 250.957 32.4 250.597C33.1467 250.237 34.0467 250.057 35.1 250.057C36.14 250.057 37.0467 250.237 37.82 250.597C38.58 250.957 39.1667 251.457 39.58 252.097C39.9933 252.737 40.2 253.49 40.2 254.357C40.2 255.17 40 255.884 39.6 256.497C39.1867 257.11 38.6533 257.524 38 257.737L38 257.497L42.5 257.497C42.9133 257.497 43.2267 257.61 43.44 257.837C43.6533 258.05 43.76 258.357 43.76 258.757ZM38.3 255.057C38.3 254.564 38.18 254.13 37.94 253.757C37.7 253.384 37.3467 253.097 36.88 252.897C36.4 252.684 35.8067 252.577 35.1 252.577C34.0333 252.577 33.24 252.804 32.72 253.257C32.1867 253.71 31.92 254.31 31.92 255.057C31.92 255.55 32.04 255.984 32.28 256.357C32.5067 256.73 32.86 257.024 33.34 257.237C33.8067 257.437 34.3933 257.537 35.1 257.537C36.1533 257.537 36.9533 257.31 37.5 256.857C38.0333 256.404 38.3 255.804 38.3 255.057ZM40.2 244.785C40.2 245.491 40.0667 246.125 39.8 246.685C39.52 247.231 39.1467 247.665 38.68 247.985C38.2133 248.291 37.6867 248.445 37.1 248.445C36.38 248.445 35.8133 248.258 35.4 247.885C34.9733 247.511 34.6667 246.905 34.48 246.065C34.2933 245.225 34.2 244.098 34.2 242.685L34.2 241.685L35.64 241.685L35.64 242.665C35.64 243.491 35.68 244.151 35.76 244.645C35.84 245.138 35.98 245.491 36.18 245.705C36.3667 245.905 36.6333 246.005 36.98 246.005C37.42 246.005 37.78 245.851 38.06 245.545C38.34 245.238 38.48 244.811 38.48 244.265C38.48 243.825 38.38 243.438 38.18 243.105C37.9667 242.758 37.68 242.485 37.32 242.285C36.96 242.085 36.5467 241.985 36.08 241.985L33.78 241.985C33.1133 241.985 32.6333 242.131 32.34 242.425C32.0467 242.718 31.9 243.211 31.9 243.905C31.9 244.291 31.9467 244.711 32.04 245.165C32.1333 245.605 32.2933 246.071 32.52 246.565C32.64 246.818 32.6733 247.045 32.62 247.245C32.5667 247.431 32.46 247.578 32.3 247.685C32.1267 247.791 31.94 247.845 31.74 247.845C31.54 247.845 31.3467 247.791 31.16 247.685C30.96 247.578 30.8133 247.398 30.72 247.145C30.4667 246.531 30.2867 245.945 30.18 245.385C30.0733 244.811 30.02 244.291 30.02 243.825C30.02 242.865 30.1667 242.078 30.46 241.465C30.7533 240.838 31.2 240.371 31.8 240.065C32.3867 239.758 33.1467 239.605 34.08 239.605L38.88 239.605C39.2933 239.605 39.6133 239.705 39.84 239.905C40.0533 240.105 40.16 240.391 40.16 240.765C40.16 241.138 40.0533 241.431 39.84 241.645C39.6133 241.845 39.2933 241.945 38.88 241.945L37.92 241.945L37.92 241.785C38.3867 241.878 38.7933 242.065 39.14 242.345C39.4733 242.611 39.7333 242.951 39.92 243.365C40.1067 243.778 40.2 244.251 40.2 244.785ZM40.2 232.547C40.2 233.574 39.9933 234.467 39.58 235.227C39.1533 235.987 38.5533 236.574 37.78 236.987C37.0067 237.401 36.1 237.607 35.06 237.607C34.2733 237.607 33.5733 237.494 32.96 237.267C32.3333 237.027 31.8067 236.687 31.38 236.247C30.94 235.807 30.6067 235.274 30.38 234.647C30.14 234.021 30.02 233.321 30.02 232.547C30.02 232.107 30.08 231.634 30.2 231.127C30.32 230.607 30.52 230.121 30.8 229.667C30.9333 229.454 31.0933 229.314 31.28 229.247C31.4667 229.181 31.66 229.167 31.86 229.207C32.0467 229.247 32.2133 229.334 32.36 229.467C32.4933 229.587 32.58 229.741 32.62 229.927C32.6467 230.114 32.6 230.321 32.48 230.547C32.3067 230.841 32.18 231.141 32.1 231.447C32.0067 231.754 31.96 232.047 31.96 232.327C31.96 232.767 32.0333 233.154 32.18 233.487C32.3133 233.821 32.5133 234.107 32.78 234.347C33.0333 234.574 33.3533 234.747 33.74 234.867C34.1267 234.987 34.5733 235.047 35.08 235.047C36.0667 235.047 36.8467 234.814 37.42 234.347C37.98 233.867 38.26 233.194 38.26 232.327C38.26 232.047 38.22 231.761 38.14 231.467C38.06 231.161 37.9333 230.854 37.76 230.547C37.64 230.321 37.6 230.121 37.64 229.947C37.68 229.761 37.7733 229.607 37.92 229.487C38.0533 229.367 38.22 229.294 38.42 229.267C38.6067 229.241 38.7933 229.267 38.98 229.347C39.1667 229.414 39.32 229.547 39.44 229.747C39.7067 230.187 39.9 230.654 40.02 231.147C40.14 231.641 40.2 232.107 40.2 232.547ZM40.2 223.009C40.2 224.116 39.9933 225.069 39.58 225.869C39.1667 226.669 38.58 227.289 37.82 227.729C37.06 228.156 36.16 228.369 35.12 228.369C34.1067 228.369 33.22 228.162 32.46 227.749C31.7 227.322 31.1067 226.742 30.68 226.009C30.24 225.262 30.02 224.416 30.02 223.469C30.02 222.776 30.1333 222.156 30.36 221.609C30.5867 221.049 30.9133 220.576 31.34 220.189C31.7667 219.789 32.2867 219.489 32.9 219.289C33.5 219.076 34.18 218.969 34.94 218.969C35.18 218.969 35.3667 219.056 35.5 219.229C35.62 219.389 35.68 219.622 35.68 219.929L35.68 226.349L34.24 226.349L34.24 220.729L34.54 221.049C33.9267 221.049 33.4133 221.142 33 221.329C32.5867 221.502 32.2733 221.762 32.06 222.109C31.8333 222.442 31.72 222.862 31.72 223.369C31.72 223.929 31.8533 224.409 32.12 224.809C32.3733 225.196 32.74 225.496 33.22 225.709C33.6867 225.909 34.2467 226.009 34.9 226.009L35.04 226.009C36.1333 226.009 36.9533 225.756 37.5 225.249C38.0333 224.729 38.3 223.969 38.3 222.969C38.3 222.622 38.26 222.236 38.18 221.809C38.0867 221.369 37.9333 220.956 37.72 220.569C37.56 220.289 37.4933 220.042 37.52 219.829C37.5333 219.616 37.6067 219.449 37.74 219.329C37.8733 219.196 38.04 219.116 38.24 219.089C38.4267 219.062 38.62 219.102 38.82 219.209C39.02 219.302 39.1933 219.469 39.34 219.709C39.6333 220.176 39.8533 220.716 40 221.329C40.1333 221.929 40.2 222.489 40.2 223.009ZM35.64 215.815C35.64 216.108 35.5467 216.355 35.36 216.555C35.16 216.742 34.92 216.835 34.64 216.835C34.3467 216.835 34.1067 216.742 33.92 216.555C33.7333 216.355 33.64 216.108 33.64 215.815L33.64 211.555C33.64 211.275 33.7333 211.042 33.92 210.855C34.1067 210.655 34.3467 210.555 34.64 210.555C34.92 210.555 35.16 210.655 35.36 210.855C35.5467 211.042 35.64 211.275 35.64 211.555L35.64 215.815ZM40.16 206.623C40.16 206.997 40.0533 207.283 39.84 207.483C39.6267 207.683 39.3333 207.783 38.96 207.783L26.94 207.783C26.5533 207.783 26.26 207.677 26.06 207.463C25.8467 207.25 25.74 206.957 25.74 206.583C25.74 206.25 25.8067 205.99 25.94 205.803C26.06 205.603 26.2733 205.423 26.58 205.263L35.72 200.323L35.72 200.963L26.58 196.023C26.2733 195.863 26.06 195.69 25.94 195.503C25.8067 195.317 25.74 195.057 25.74 194.723C25.74 194.35 25.8467 194.063 26.06 193.863C26.26 193.663 26.5533 193.563 26.94 193.563L38.96 193.563C39.3333 193.563 39.6267 193.663 39.84 193.863C40.0533 194.05 40.16 194.337 40.16 194.723C40.16 195.097 40.0533 195.383 39.84 195.583C39.6267 195.783 39.3333 195.883 38.96 195.883L29.7 195.883L29.7 195.443L37.36 199.643C37.5867 199.777 37.7533 199.917 37.86 200.063C37.9667 200.21 38.02 200.41 38.02 200.663C38.02 200.917 37.9667 201.123 37.86 201.283C37.74 201.443 37.5733 201.583 37.36 201.703L29.68 205.943L29.68 205.463L38.96 205.463C39.3333 205.463 39.6267 205.563 39.84 205.763C40.0533 205.95 40.16 206.237 40.16 206.623ZM40.2 185.88C40.2 186.987 39.9933 187.94 39.58 188.74C39.1667 189.54 38.58 190.16 37.82 190.6C37.06 191.027 36.16 191.24 35.12 191.24C34.1067 191.24 33.22 191.033 32.46 190.62C31.7 190.193 31.1067 189.613 30.68 188.88C30.24 188.133 30.02 187.287 30.02 186.34C30.02 185.647 30.1333 185.027 30.36 184.48C30.5867 183.92 30.9133 183.447 31.34 183.06C31.7667 182.66 32.2867 182.36 32.9 182.16C33.5 181.947 34.18 181.84 34.94 181.84C35.18 181.84 35.3667 181.927 35.5 182.1C35.62 182.26 35.68 182.493 35.68 182.8L35.68 189.22L34.24 189.22L34.24 183.6L34.54 183.92C33.9267 183.92 33.4133 184.013 33 184.2C32.5867 184.373 32.2733 184.633 32.06 184.98C31.8333 185.313 31.72 185.733 31.72 186.24C31.72 186.8 31.8533 187.28 32.12 187.68C32.3733 188.067 32.74 188.367 33.22 188.58C33.6867 188.78 34.2467 188.88 34.9 188.88L35.04 188.88C36.1333 188.88 36.9533 188.627 37.5 188.12C38.0333 187.6 38.3 186.84 38.3 185.84C38.3 185.493 38.26 185.107 38.18 184.68C38.0867 184.24 37.9333 183.827 37.72 183.44C37.56 183.16 37.4933 182.913 37.52 182.7C37.5333 182.487 37.6067 182.32 37.74 182.2C37.8733 182.067 38.04 181.987 38.24 181.96C38.4267 181.933 38.62 181.973 38.82 182.08C39.02 182.173 39.1933 182.34 39.34 182.58C39.6333 183.047 39.8533 183.587 40 184.2C40.1333 184.8 40.2 185.36 40.2 185.88ZM40.16 178.62C40.16 179.02 40.0533 179.327 39.84 179.54C39.6133 179.753 39.2933 179.86 38.88 179.86L31.32 179.86C30.9067 179.86 30.5933 179.753 30.38 179.54C30.1667 179.327 30.06 179.027 30.06 178.64C30.06 178.253 30.1667 177.953 30.38 177.74C30.5933 177.527 30.9067 177.42 31.32 177.42L32.68 177.42L32.18 177.64C31.4733 177.347 30.94 176.893 30.58 176.28C30.2067 175.653 30.02 174.947 30.02 174.16C30.02 173.373 30.1667 172.727 30.46 172.22C30.7533 171.713 31.2 171.333 31.8 171.08C32.3867 170.827 33.1333 170.7 34.04 170.7L38.88 170.7C39.2933 170.7 39.6133 170.807 39.84 171.02C40.0533 171.233 40.16 171.54 40.16 171.94C40.16 172.34 40.0533 172.653 39.84 172.88C39.6133 173.093 39.2933 173.2 38.88 173.2L34.16 173.2C33.4 173.2 32.8467 173.347 32.5 173.64C32.1533 173.92 31.98 174.36 31.98 174.96C31.98 175.693 32.2133 176.28 32.68 176.72C33.1333 177.147 33.74 177.36 34.5 177.36L38.88 177.36C39.7333 177.36 40.16 177.78 40.16 178.62ZM40.2 164.621C40.2 165.434 40.0533 166.108 39.76 166.641C39.4533 167.174 39 167.574 38.4 167.841C37.8 168.094 37.0533 168.221 36.16 168.221L31.32 168.221C30.8933 168.221 30.58 168.114 30.38 167.901C30.1667 167.688 30.06 167.381 30.06 166.981C30.06 166.581 30.1667 166.274 30.38 166.061C30.58 165.834 30.8933 165.721 31.32 165.721L36.2 165.721C36.8933 165.721 37.4067 165.581 37.74 165.301C38.0733 165.021 38.24 164.574 38.24 163.961C38.24 163.294 38.0133 162.748 37.56 162.321C37.0933 161.894 36.48 161.681 35.72 161.681L31.32 161.681C30.8933 161.681 30.58 161.574 30.38 161.361C30.1667 161.148 30.06 160.841 30.06 160.441C30.06 160.041 30.1667 159.734 30.38 159.521C30.58 159.294 30.8933 159.181 31.32 159.181L38.88 159.181C39.7333 159.181 40.16 159.588 40.16 160.401C40.16 160.788 40.0533 161.088 39.84 161.301C39.6133 161.514 39.2933 161.621 38.88 161.621L37.36 161.621L37.96 161.341C38.68 161.621 39.2333 162.048 39.62 162.621C40.0067 163.181 40.2 163.848 40.2 164.621ZM28.12 161.781C28.12 162.181 28.0133 162.488 27.8 162.701C27.5867 162.914 27.28 163.021 26.88 163.021C26.4933 163.021 26.1933 162.914 25.98 162.701C25.7667 162.488 25.66 162.181 25.66 161.781C25.66 161.394 25.7667 161.094 25.98 160.881C26.1933 160.668 26.4933 160.561 26.88 160.561C27.28 160.561 27.5867 160.668 27.8 160.881C28.0133 161.081 28.12 161.381 28.12 161.781ZM28.12 165.561C28.12 165.948 28.0133 166.254 27.8 166.481C27.5867 166.694 27.28 166.801 26.88 166.801C26.4933 166.801 26.1933 166.694 25.98 166.481C25.7667 166.254 25.66 165.948 25.66 165.561C25.66 165.161 25.7667 164.854 25.98 164.641C26.1933 164.428 26.4933 164.321 26.88 164.321C27.28 164.321 27.5867 164.428 27.8 164.641C28.0133 164.854 28.12 165.161 28.12 165.561ZM40.2 147.569C40.2 148.143 40.14 148.749 40.02 149.389C39.9 150.029 39.6933 150.603 39.4 151.109C39.2667 151.323 39.1133 151.476 38.94 151.569C38.7533 151.649 38.5733 151.683 38.4 151.669C38.2133 151.643 38.0533 151.576 37.92 151.469C37.7867 151.349 37.7 151.203 37.66 151.029C37.62 150.843 37.6533 150.643 37.76 150.429C38.0133 149.896 38.1933 149.396 38.3 148.929C38.3933 148.463 38.44 148.003 38.44 147.549C38.44 146.909 38.3333 146.436 38.12 146.129C37.8933 145.809 37.6 145.649 37.24 145.649C36.9333 145.649 36.7 145.756 36.54 145.969C36.3667 146.169 36.24 146.476 36.16 146.889L35.78 148.889C35.62 149.716 35.32 150.349 34.88 150.789C34.4267 151.216 33.8467 151.429 33.14 151.429C32.5 151.429 31.9467 151.256 31.48 150.909C31.0133 150.549 30.6533 150.056 30.4 149.429C30.1467 148.803 30.02 148.083 30.02 147.269C30.02 146.683 30.0867 146.136 30.22 145.629C30.34 145.109 30.5333 144.609 30.8 144.129C30.9067 143.929 31.0467 143.796 31.22 143.729C31.3933 143.649 31.5733 143.629 31.76 143.669C31.9333 143.709 32.0933 143.789 32.24 143.909C32.3733 144.029 32.46 144.183 32.5 144.369C32.5267 144.543 32.4867 144.743 32.38 144.969C32.1667 145.383 32.0133 145.783 31.92 146.169C31.8267 146.543 31.78 146.903 31.78 147.249C31.78 147.903 31.8933 148.389 32.12 148.709C32.3467 149.016 32.6467 149.169 33.02 149.169C33.3 149.169 33.5333 149.076 33.72 148.889C33.9067 148.703 34.0333 148.416 34.1 148.029L34.48 146.029C34.64 145.163 34.9333 144.509 35.36 144.069C35.7867 143.616 36.36 143.389 37.08 143.389C38.0533 143.389 38.82 143.769 39.38 144.529C39.9267 145.289 40.2 146.303 40.2 147.569ZM40.2 136.864C40.2 137.89 39.9933 138.784 39.58 139.544C39.1533 140.304 38.5533 140.89 37.78 141.304C37.0067 141.717 36.1 141.924 35.06 141.924C34.2733 141.924 33.5733 141.81 32.96 141.584C32.3333 141.344 31.8067 141.004 31.38 140.564C30.94 140.124 30.6067 139.59 30.38 138.964C30.14 138.337 30.02 137.637 30.02 136.864C30.02 136.424 30.08 135.95 30.2 135.444C30.32 134.924 30.52 134.437 30.8 133.984C30.9333 133.77 31.0933 133.63 31.28 133.564C31.4667 133.497 31.66 133.484 31.86 133.524C32.0467 133.564 32.2133 133.65 32.36 133.784C32.4933 133.904 32.58 134.057 32.62 134.244C32.6467 134.43 32.6 134.637 32.48 134.864C32.3067 135.157 32.18 135.457 32.1 135.764C32.0067 136.07 31.96 136.364 31.96 136.644C31.96 137.084 32.0333 137.47 32.18 137.804C32.3133 138.137 32.5133 138.424 32.78 138.664C33.0333 138.89 33.3533 139.064 33.74 139.184C34.1267 139.304 34.5733 139.364 35.08 139.364C36.0667 139.364 36.8467 139.13 37.42 138.664C37.98 138.184 38.26 137.51 38.26 136.644C38.26 136.364 38.22 136.077 38.14 135.784C38.06 135.477 37.9333 135.17 37.76 134.864C37.64 134.637 37.6 134.437 37.64 134.264C37.68 134.077 37.7733 133.924 37.92 133.804C38.0533 133.684 38.22 133.61 38.42 133.584C38.6067 133.557 38.7933 133.584 38.98 133.664C39.1667 133.73 39.32 133.864 39.44 134.064C39.7067 134.504 39.9 134.97 40.02 135.464C40.14 135.957 40.2 136.424 40.2 136.864ZM40.16 130.71C40.16 131.11 40.0533 131.417 39.84 131.63C39.6133 131.843 39.2933 131.95 38.88 131.95L27 131.95C26.5867 131.95 26.2733 131.843 26.06 131.63C25.8467 131.417 25.74 131.11 25.74 130.71C25.74 130.31 25.8467 130.003 26.06 129.79C26.2733 129.563 26.5867 129.45 27 129.45L32.18 129.45L32.18 129.73C31.4733 129.437 30.94 128.983 30.58 128.37C30.2067 127.743 30.02 127.037 30.02 126.25C30.02 125.463 30.1667 124.817 30.46 124.31C30.7533 123.803 31.2 123.423 31.8 123.17C32.3867 122.917 33.1333 122.79 34.04 122.79L38.88 122.79C39.2933 122.79 39.6133 122.897 39.84 123.11C40.0533 123.323 40.16 123.63 40.16 124.03C40.16 124.43 40.0533 124.743 39.84 124.97C39.6133 125.183 39.2933 125.29 38.88 125.29L34.16 125.29C33.4 125.29 32.8467 125.437 32.5 125.73C32.1533 126.01 31.98 126.45 31.98 127.05C31.98 127.783 32.2133 128.37 32.68 128.81C33.1333 129.237 33.74 129.45 34.5 129.45L38.88 129.45C39.7333 129.45 40.16 129.87 40.16 130.71ZM40.2 116.911C40.2 118.017 39.8867 118.851 39.26 119.411C38.62 119.971 37.6867 120.251 36.46 120.251L27 120.251C26.5867 120.251 26.2733 120.144 26.06 119.931C25.8467 119.717 25.74 119.411 25.74 119.011C25.74 118.611 25.8467 118.304 26.06 118.091C26.2733 117.864 26.5867 117.751 27 117.751L36.34 117.751C36.9533 117.751 37.4067 117.624 37.7 117.371C37.9933 117.104 38.14 116.731 38.14 116.251C38.14 116.144 38.14 116.044 38.14 115.951C38.1267 115.857 38.1133 115.764 38.1 115.671C38.0733 115.484 38.1267 115.357 38.26 115.291C38.38 115.224 38.6333 115.191 39.02 115.191C39.3533 115.191 39.6133 115.257 39.8 115.391C39.9867 115.524 40.1 115.744 40.14 116.051C40.1533 116.184 40.1667 116.324 40.18 116.471C40.1933 116.617 40.2 116.764 40.2 116.911ZM40.14 112.624C40.14 113.024 40.02 113.331 39.78 113.544C39.54 113.757 39.2067 113.864 38.78 113.864L31.44 113.864C31 113.864 30.6667 113.757 30.44 113.544C30.2 113.331 30.08 113.024 30.08 112.624C30.08 112.224 30.2 111.917 30.44 111.704C30.6667 111.477 31 111.364 31.44 111.364L38.78 111.364C39.2067 111.364 39.54 111.471 39.78 111.684C40.02 111.897 40.14 112.211 40.14 112.624ZM28.22 112.624C28.22 113.091 28.1067 113.457 27.88 113.724C27.64 113.977 27.3133 114.104 26.9 114.104C26.4733 114.104 26.1467 113.977 25.92 113.724C25.6933 113.457 25.58 113.091 25.58 112.624C25.58 112.144 25.6933 111.777 25.92 111.524C26.1467 111.271 26.4733 111.144 26.9 111.144C27.3133 111.144 27.64 111.271 27.88 111.524C28.1067 111.777 28.22 112.144 28.22 112.624ZM40.2 103.946C40.2 105.053 39.9933 106.006 39.58 106.806C39.1667 107.606 38.58 108.226 37.82 108.666C37.06 109.093 36.16 109.306 35.12 109.306C34.1067 109.306 33.22 109.1 32.46 108.686C31.7 108.26 31.1067 107.68 30.68 106.946C30.24 106.2 30.02 105.353 30.02 104.406C30.02 103.713 30.1333 103.093 30.36 102.546C30.5867 101.986 30.9133 101.513 31.34 101.126C31.7667 100.726 32.2867 100.426 32.9 100.226C33.5 100.013 34.18 99.9064 34.94 99.9064C35.18 99.9064 35.3667 99.9931 35.5 100.166C35.62 100.326 35.68 100.56 35.68 100.866L35.68 107.286L34.24 107.286L34.24 101.666L34.54 101.986C33.9267 101.986 33.4133 102.08 33 102.266C32.5867 102.44 32.2733 102.7 32.06 103.046C31.8333 103.38 31.72 103.8 31.72 104.306C31.72 104.866 31.8533 105.346 32.12 105.746C32.3733 106.133 32.74 106.433 33.22 106.646C33.6867 106.846 34.2467 106.946 34.9 106.946L35.04 106.946C36.1333 106.946 36.9533 106.693 37.5 106.186C38.0333 105.666 38.3 104.906 38.3 103.906C38.3 103.56 38.26 103.173 38.18 102.746C38.0867 102.306 37.9333 101.893 37.72 101.506C37.56 101.226 37.4933 100.98 37.52 100.766C37.5333 100.553 37.6067 100.386 37.74 100.266C37.8733 100.133 38.04 100.053 38.24 100.026C38.4267 99.9997 38.62 100.04 38.82 100.146C39.02 100.24 39.1933 100.406 39.34 100.646C39.6333 101.113 39.8533 101.653 40 102.266C40.1333 102.866 40.2 103.426 40.2 103.946ZM40.2 90.5066C40.2 91.0799 40.1267 91.6666 39.98 92.2666C39.8333 92.8532 39.6133 93.3932 39.32 93.8866C39.1867 94.0999 39.0267 94.2466 38.84 94.3266C38.6533 94.4066 38.4667 94.4332 38.28 94.4066C38.08 94.3666 37.9133 94.2866 37.78 94.1666C37.6333 94.0332 37.5467 93.8732 37.52 93.6866C37.48 93.4999 37.52 93.2999 37.64 93.0866C37.8933 92.6466 38.0733 92.1932 38.18 91.7266C38.2733 91.2466 38.32 90.8266 38.32 90.4666C38.32 89.9732 38.22 89.5866 38.02 89.3066C37.82 89.0266 37.5333 88.8866 37.16 88.8866C36.8533 88.8866 36.6 89.0266 36.4 89.3066C36.1867 89.5732 35.9733 90.0666 35.76 90.7866C35.44 91.8399 35.06 92.5799 34.62 93.0066C34.18 93.4332 33.6333 93.6466 32.98 93.6466C32.7 93.6466 32.4267 93.6066 32.16 93.5266C31.8933 93.4466 31.6133 93.2999 31.32 93.0866C31.0267 92.8732 30.7067 92.5799 30.36 92.2066C30.0267 91.8599 29.74 91.6199 29.5 91.4866C29.2467 91.3399 28.98 91.2666 28.7 91.2666C28.34 91.2666 28.0533 91.3999 27.84 91.6666C27.6267 91.9199 27.52 92.2999 27.52 92.8066C27.52 93.6599 27.7733 94.3132 28.28 94.7666C28.7867 95.2066 29.5067 95.4266 30.44 95.4266L38.88 95.4266C39.2933 95.4266 39.6133 95.5399 39.84 95.7666C40.0533 95.9799 40.16 96.2866 40.16 96.6866C40.16 97.0866 40.0533 97.3932 39.84 97.6066C39.6133 97.8199 39.2933 97.9266 38.88 97.9266L30.82 97.9266C29.18 97.9266 27.92 97.4866 27.04 96.6066C26.1467 95.7132 25.7 94.4399 25.7 92.7866C25.7 91.9732 25.8133 91.2799 26.04 90.7066C26.2667 90.1199 26.5867 89.6732 27 89.3666C27.4133 89.0599 27.9067 88.9066 28.48 88.9066C28.9467 88.9066 29.38 89.0066 29.78 89.2066C30.18 89.4066 30.6133 89.7599 31.08 90.2666C31.3467 90.5466 31.5733 90.7666 31.76 90.9266C31.9333 91.0866 32.0933 91.1999 32.24 91.2666C32.3733 91.3199 32.52 91.3466 32.68 91.3466C32.96 91.3466 33.2067 91.2132 33.42 90.9466C33.62 90.6666 33.8333 90.1466 34.06 89.3866C34.3533 88.3999 34.74 87.6932 35.22 87.2666C35.7 86.8266 36.3 86.6066 37.02 86.6066C37.66 86.6066 38.22 86.7666 38.7 87.0866C39.1667 87.4066 39.5333 87.8599 39.8 88.4466C40.0667 89.0332 40.2 89.7199 40.2 90.5066ZM40.2 80.0402C40.2 81.1468 39.9933 82.1002 39.58 82.9002C39.1667 83.7002 38.58 84.3202 37.82 84.7602C37.06 85.1868 36.16 85.4002 35.12 85.4002C34.1067 85.4002 33.22 85.1935 32.46 84.7802C31.7 84.3535 31.1067 83.7735 30.68 83.0402C30.24 82.2935 30.02 81.4468 30.02 80.5002C30.02 79.8068 30.1333 79.1868 30.36 78.6402C30.5867 78.0802 30.9133 77.6068 31.34 77.2202C31.7667 76.8202 32.2867 76.5202 32.9 76.3202C33.5 76.1068 34.18 76.0002 34.94 76.0002C35.18 76.0002 35.3667 76.0868 35.5 76.2602C35.62 76.4202 35.68 76.6535 35.68 76.9602L35.68 83.3802L34.24 83.3802L34.24 77.7602L34.54 78.0802C33.9267 78.0802 33.4133 78.1735 33 78.3602C32.5867 78.5335 32.2733 78.7935 32.06 79.1402C31.8333 79.4735 31.72 79.8935 31.72 80.4002C31.72 80.9602 31.8533 81.4402 32.12 81.8402C32.3733 82.2268 32.74 82.5268 33.22 82.7402C33.6867 82.9402 34.2467 83.0402 34.9 83.0402L35.04 83.0402C36.1333 83.0402 36.9533 82.7868 37.5 82.2802C38.0333 81.7602 38.3 81.0002 38.3 80.0002C38.3 79.6535 38.26 79.2668 38.18 78.8402C38.0867 78.4002 37.9333 77.9868 37.72 77.6002C37.56 77.3202 37.4933 77.0735 37.52 76.8602C37.5333 76.6468 37.6067 76.4802 37.74 76.3602C37.8733 76.2268 38.04 76.1468 38.24 76.1202C38.4267 76.0935 38.62 76.1335 38.82 76.2402C39.02 76.3335 39.1933 76.5002 39.34 76.7402C39.6333 77.2068 39.8533 77.7468 40 78.3602C40.1333 78.9602 40.2 79.5202 40.2 80.0402ZM40.16 72.7803C40.16 73.1803 40.0533 73.487 39.84 73.7003C39.6133 73.9136 39.2933 74.0203 38.88 74.0203L31.32 74.0203C30.9067 74.0203 30.5933 73.9136 30.38 73.7003C30.1667 73.487 30.06 73.187 30.06 72.8003C30.06 72.4136 30.1667 72.1136 30.38 71.9003C30.5933 71.687 30.9067 71.5803 31.32 71.5803L32.68 71.5803L32.18 71.8003C31.4733 71.507 30.94 71.0536 30.58 70.4403C30.2067 69.8136 30.02 69.107 30.02 68.3203C30.02 67.5336 30.1667 66.887 30.46 66.3803C30.7533 65.8736 31.2 65.4936 31.8 65.2403C32.3867 64.987 33.1333 64.8603 34.04 64.8603L38.88 64.8603C39.2933 64.8603 39.6133 64.967 39.84 65.1803C40.0533 65.3936 40.16 65.7003 40.16 66.1003C40.16 66.5003 40.0533 66.8136 39.84 67.0403C39.6133 67.2536 39.2933 67.3603 38.88 67.3603L34.16 67.3603C33.4 67.3603 32.8467 67.507 32.5 67.8003C32.1533 68.0803 31.98 68.5203 31.98 69.1203C31.98 69.8536 32.2133 70.4403 32.68 70.8803C33.1333 71.307 33.74 71.5203 34.5 71.5203L38.88 71.5203C39.7333 71.5203 40.16 71.9403 40.16 72.7803Z" fill="#535AF1"/>
</g>
<defs>
<filter id="filter0_d_1854_19285" x="0" y="0" width="74" height="353" filterUnits="userSpaceOnUse" color-interpolation-filters="sRGB">
<feFlood flood-opacity="0" result="BackgroundImageFix"/>
<feColorMatrix in="SourceAlpha" type="matrix" values="0 0 0 0 0 0 0 0 0 0 0 0 0 0 0 0 0 0 127 0" result="hardAlpha"/>
<feOffset dx="4" dy="4"/>
<feGaussianBlur stdDeviation="3.5"/>
<feComposite in2="hardAlpha" operator="out"/>
<feColorMatrix type="matrix" values="0 0 0 0 0 0 0 0 0 0 0 0 0 0 0 0 0 0 0.2 0"/>
<feBlend mode="normal" in2="BackgroundImageFix" result="effect1_dropShadow_1854_19285"/>
<feBlend mode="normal" in="SourceGraphic" in2="effect1_dropShadow_1854_19285" result="shape"/>
</filter>
</defs>
</svg>
