<svg width="70" height="324" viewBox="0 0 70 324" fill="none" xmlns="http://www.w3.org/2000/svg">
<g filter="url(#filter0_d_1854_19292)">
<path d="M3 3H29C45.5685 3 59 16.4315 59 33V283C59 299.569 45.5685 313 29 313H3V3Z" fill="white"/>
<rect x="23" y="34" width="16" height="16" rx="1" stroke="black" stroke-width="2"/>
<path d="M28.7144 34V50" stroke="black" stroke-width="2"/>
<path d="M32.143 44.2856L34.0752 42.3535C34.2704 42.1582 34.2704 41.8416 34.0752 41.6464L32.143 39.7142" stroke="black" stroke-width="2" stroke-linecap="round"/>
<path d="M38.14 283.68C38.14 283.947 38.0733 284.16 37.94 284.32C37.8067 284.48 37.5933 284.613 37.3 284.72L24.86 289.08C24.5533 289.2 24.2933 289.187 24.08 289.04C23.8667 288.88 23.76 288.62 23.76 288.26C23.76 288.007 23.82 287.807 23.94 287.66C24.06 287.513 24.26 287.393 24.54 287.3L36.34 283.28L36.34 284L24.58 279.88C24.3 279.773 24.0933 279.647 23.96 279.5C23.8267 279.353 23.76 279.16 23.76 278.92C23.76 278.667 23.8267 278.473 23.96 278.34C24.0933 278.193 24.3067 278.073 24.6 277.98L36.34 273.94L36.34 274.58L24.54 270.52C24.2733 270.427 24.08 270.307 23.96 270.16C23.8267 270.013 23.76 269.807 23.76 269.54C23.76 269.233 23.8667 269.007 24.08 268.86C24.2933 268.713 24.5533 268.693 24.86 268.8L37.32 273.2C37.6 273.293 37.8067 273.42 37.94 273.58C38.0733 273.74 38.14 273.953 38.14 274.22C38.14 274.5 38.0733 274.72 37.94 274.88C37.8067 275.04 37.5933 275.173 37.3 275.28L26.1 279.18L26.1 278.74L37.32 282.66C37.6 282.767 37.8067 282.9 37.94 283.06C38.0733 283.207 38.14 283.413 38.14 283.68ZM38.18 263.521C38.18 264.481 37.9733 265.314 37.56 266.021C37.1467 266.728 36.56 267.274 35.8 267.661C35.04 268.048 34.1467 268.241 33.12 268.241C32.3467 268.241 31.6533 268.134 31.04 267.921C30.4133 267.694 29.88 267.374 29.44 266.961C29 266.548 28.6667 266.054 28.44 265.481C28.2 264.894 28.08 264.241 28.08 263.521C28.08 262.561 28.2867 261.728 28.7 261.021C29.1133 260.314 29.7 259.768 30.46 259.381C31.2067 258.994 32.0933 258.801 33.12 258.801C33.8933 258.801 34.5933 258.914 35.22 259.141C35.8467 259.354 36.38 259.668 36.82 260.081C37.26 260.494 37.6 260.994 37.84 261.581C38.0667 262.154 38.18 262.801 38.18 263.521ZM36.74 263.521C36.74 262.934 36.6 262.428 36.32 262.001C36.04 261.561 35.6333 261.228 35.1 261.001C34.5667 260.761 33.9067 260.641 33.12 260.641C31.9467 260.641 31.0533 260.901 30.44 261.421C29.8267 261.941 29.52 262.641 29.52 263.521C29.52 264.094 29.66 264.601 29.94 265.041C30.2067 265.468 30.6067 265.801 31.14 266.041C31.6733 266.281 32.3333 266.401 33.12 266.401C34.2933 266.401 35.1933 266.141 35.82 265.621C36.4333 265.088 36.74 264.388 36.74 263.521ZM38.14 255.53C38.14 255.836 38.06 256.07 37.9 256.23C37.74 256.39 37.5067 256.47 37.2 256.47L29.04 256.47C28.7333 256.47 28.5067 256.39 28.36 256.23C28.2 256.07 28.12 255.85 28.12 255.57C28.12 255.29 28.2 255.076 28.36 254.93C28.5067 254.77 28.7333 254.69 29.04 254.69L30.58 254.69L30.58 254.89C29.78 254.676 29.1733 254.276 28.76 253.69C28.3467 253.103 28.1133 252.363 28.06 251.47C28.0467 251.256 28.1 251.083 28.22 250.95C28.3267 250.816 28.5133 250.743 28.78 250.73C29.0333 250.716 29.24 250.776 29.4 250.91C29.5467 251.043 29.6333 251.25 29.66 251.53L29.68 251.89C29.7733 252.77 30.06 253.45 30.54 253.93C31.02 254.396 31.68 254.63 32.52 254.63L37.2 254.63C37.5067 254.63 37.74 254.71 37.9 254.87C38.06 255.016 38.14 255.236 38.14 255.53ZM38.14 248.265C38.14 248.545 38.06 248.765 37.9 248.925C37.74 249.085 37.5067 249.165 37.2 249.165L24.68 249.165C24.3733 249.165 24.1467 249.085 24 248.925C23.84 248.765 23.76 248.545 23.76 248.265C23.76 247.972 23.84 247.745 24 247.585C24.1467 247.425 24.3733 247.345 24.68 247.345L32.56 247.345L32.56 247.305L28.74 243.385C28.54 243.185 28.3867 243.005 28.28 242.845C28.1733 242.685 28.12 242.478 28.12 242.225C28.12 241.972 28.1867 241.778 28.32 241.645C28.44 241.512 28.6 241.445 28.8 241.445C28.9867 241.445 29.1733 241.538 29.36 241.725L33.4 245.885L32.5 245.885L36.88 241.345C37.0667 241.158 37.26 241.072 37.46 241.085C37.66 241.085 37.8267 241.158 37.96 241.305C38.08 241.438 38.14 241.618 38.14 241.845C38.14 242.112 38.0867 242.332 37.98 242.505C37.8733 242.665 37.7067 242.852 37.48 243.065L33.48 247.305L33.48 247.345L37.2 247.345C37.8267 247.345 38.14 247.652 38.14 248.265ZM38.18 235.825C38.18 236.425 38.1133 237.031 37.98 237.645C37.8333 238.245 37.5867 238.811 37.24 239.345C37.1467 239.491 37.0333 239.598 36.9 239.665C36.7533 239.718 36.6133 239.738 36.48 239.725C36.3333 239.698 36.2067 239.638 36.1 239.545C35.9933 239.451 35.9333 239.338 35.92 239.205C35.8933 239.058 35.9267 238.905 36.02 238.745C36.3133 238.225 36.52 237.725 36.64 237.245C36.76 236.751 36.82 236.265 36.82 235.785C36.82 235.051 36.6867 234.498 36.42 234.125C36.1533 233.751 35.8 233.565 35.36 233.565C34.9867 233.565 34.7 233.691 34.5 233.945C34.2867 234.185 34.1267 234.565 34.02 235.085L33.64 236.945C33.4533 237.771 33.1467 238.398 32.72 238.825C32.28 239.238 31.72 239.445 31.04 239.445C30.44 239.445 29.92 239.285 29.48 238.965C29.0267 238.631 28.68 238.171 28.44 237.585C28.2 236.998 28.08 236.325 28.08 235.565C28.08 234.978 28.16 234.425 28.32 233.905C28.4667 233.371 28.6933 232.891 29 232.465C29.0933 232.305 29.2133 232.205 29.36 232.165C29.4933 232.111 29.6333 232.105 29.78 232.145C29.9133 232.171 30.0267 232.231 30.12 232.325C30.2133 232.418 30.2733 232.538 30.3 232.685C30.3133 232.831 30.2733 232.991 30.18 233.165C29.9133 233.551 29.7267 233.951 29.62 234.365C29.5 234.765 29.44 235.165 29.44 235.565C29.44 236.285 29.58 236.831 29.86 237.205C30.14 237.565 30.5067 237.745 30.96 237.745C31.3067 237.745 31.5933 237.638 31.82 237.425C32.0467 237.198 32.2133 236.845 32.32 236.365L32.7 234.505C32.8867 233.638 33.1867 232.985 33.6 232.545C34 232.105 34.5467 231.885 35.24 231.885C36.1467 231.885 36.8667 232.245 37.4 232.965C37.92 233.671 38.18 234.625 38.18 235.825ZM41.74 228.617C41.74 228.897 41.66 229.117 41.5 229.277C41.34 229.437 41.1133 229.517 40.82 229.517L29.04 229.517C28.7333 229.517 28.5067 229.437 28.36 229.277C28.2 229.117 28.12 228.897 28.12 228.617C28.12 228.323 28.2 228.103 28.36 227.957C28.5067 227.797 28.7333 227.717 29.04 227.717L30.86 227.717L30.5 227.937C29.7667 227.723 29.18 227.303 28.74 226.677C28.3 226.05 28.08 225.297 28.08 224.417C28.08 223.55 28.2867 222.797 28.7 222.157C29.1 221.517 29.68 221.017 30.44 220.657C31.1867 220.297 32.08 220.117 33.12 220.117C34.1467 220.117 35.0467 220.297 35.82 220.657C36.58 221.003 37.1667 221.503 37.58 222.157C37.98 222.797 38.18 223.55 38.18 224.417C38.18 225.283 37.96 226.03 37.52 226.657C37.08 227.283 36.5 227.703 35.78 227.917L35.78 227.697L40.82 227.697C41.1133 227.697 41.34 227.777 41.5 227.937C41.66 228.097 41.74 228.323 41.74 228.617ZM36.74 224.837C36.74 224.263 36.6 223.763 36.32 223.337C36.04 222.897 35.6333 222.557 35.1 222.317C34.5667 222.077 33.9067 221.957 33.12 221.957C31.9467 221.957 31.0533 222.217 30.44 222.737C29.8267 223.257 29.52 223.957 29.52 224.837C29.52 225.423 29.66 225.937 29.94 226.377C30.2067 226.803 30.6067 227.137 31.14 227.377C31.6733 227.603 32.3333 227.717 33.12 227.717C34.2933 227.717 35.1933 227.457 35.82 226.937C36.4333 226.417 36.74 225.717 36.74 224.837ZM38.18 214.678C38.18 215.345 38.0467 215.952 37.78 216.498C37.5133 217.032 37.1533 217.452 36.7 217.758C36.2467 218.052 35.74 218.198 35.18 218.198C34.46 218.198 33.8933 218.018 33.48 217.658C33.0667 217.298 32.7733 216.692 32.6 215.838C32.4133 214.985 32.32 213.838 32.32 212.398L32.32 211.458L33.48 211.458L33.48 212.358C33.48 213.385 33.5267 214.198 33.62 214.798C33.7133 215.385 33.88 215.798 34.12 216.038C34.3467 216.278 34.6667 216.398 35.08 216.398C35.6 216.398 36.0267 216.218 36.36 215.858C36.6933 215.485 36.86 214.978 36.86 214.338C36.86 213.832 36.74 213.385 36.5 212.998C36.2467 212.612 35.9133 212.305 35.5 212.078C35.0733 211.852 34.5867 211.738 34.04 211.738L31.74 211.738C30.9533 211.738 30.3867 211.898 30.04 212.218C29.68 212.538 29.5 213.078 29.5 213.838C29.5 214.278 29.56 214.732 29.68 215.198C29.8 215.665 29.9867 216.152 30.24 216.658C30.3333 216.858 30.3667 217.032 30.34 217.178C30.3 217.325 30.22 217.445 30.1 217.538C29.9667 217.618 29.8267 217.665 29.68 217.678C29.52 217.678 29.3667 217.645 29.22 217.578C29.0733 217.498 28.9667 217.365 28.9 217.178C28.6067 216.592 28.4 216.012 28.28 215.438C28.1467 214.852 28.08 214.305 28.08 213.798C28.08 212.932 28.22 212.218 28.5 211.658C28.7667 211.098 29.1867 210.678 29.76 210.398C30.32 210.118 31.04 209.978 31.92 209.978L37.2 209.978C37.5067 209.978 37.74 210.052 37.9 210.198C38.06 210.345 38.14 210.558 38.14 210.838C38.14 211.105 38.06 211.318 37.9 211.478C37.74 211.625 37.5067 211.698 37.2 211.698L35.78 211.698L35.78 211.518C36.2733 211.625 36.7 211.825 37.06 212.118C37.42 212.412 37.7 212.778 37.9 213.218C38.0867 213.645 38.18 214.132 38.18 214.678ZM38.18 202.894C38.18 203.881 37.9733 204.734 37.56 205.454C37.1333 206.174 36.54 206.728 35.78 207.114C35.0067 207.501 34.1 207.694 33.06 207.694C32.2867 207.694 31.5933 207.588 30.98 207.374C30.3667 207.148 29.8467 206.828 29.42 206.414C28.98 206.001 28.6467 205.501 28.42 204.914C28.1933 204.314 28.08 203.641 28.08 202.894C28.08 202.428 28.1533 201.934 28.3 201.414C28.4467 200.894 28.6867 200.414 29.02 199.974C29.1267 199.828 29.2533 199.734 29.4 199.694C29.5333 199.654 29.6733 199.654 29.82 199.694C29.9667 199.721 30.0933 199.788 30.2 199.894C30.2933 199.988 30.3467 200.114 30.36 200.274C30.3733 200.421 30.3267 200.581 30.22 200.754C29.98 201.074 29.8067 201.414 29.7 201.774C29.5933 202.121 29.54 202.454 29.54 202.774C29.54 203.268 29.62 203.708 29.78 204.094C29.94 204.468 30.1733 204.788 30.48 205.054C30.7733 205.308 31.14 205.501 31.58 205.634C32.0067 205.768 32.5067 205.834 33.08 205.834C34.2133 205.834 35.1067 205.568 35.76 205.034C36.4 204.501 36.72 203.748 36.72 202.774C36.72 202.454 36.6733 202.121 36.58 201.774C36.4733 201.428 36.3 201.088 36.06 200.754C35.9533 200.581 35.9133 200.421 35.94 200.274C35.9533 200.128 36.0133 200.008 36.12 199.914C36.2133 199.808 36.3333 199.741 36.48 199.714C36.6133 199.688 36.7533 199.701 36.9 199.754C37.0467 199.794 37.1667 199.888 37.26 200.034C37.58 200.461 37.8133 200.928 37.96 201.434C38.1067 201.941 38.18 202.428 38.18 202.894ZM38.18 193.513C38.18 194.566 37.98 195.473 37.58 196.233C37.1667 196.979 36.5867 197.559 35.84 197.973C35.08 198.386 34.1867 198.593 33.16 198.593C32.1467 198.593 31.26 198.393 30.5 197.993C29.74 197.579 29.1467 197.019 28.72 196.313C28.2933 195.593 28.08 194.773 28.08 193.853C28.08 193.199 28.1933 192.613 28.42 192.093C28.6333 191.559 28.9467 191.106 29.36 190.733C29.7733 190.359 30.28 190.079 30.88 189.893C31.4667 189.693 32.1333 189.593 32.88 189.593C33.0933 189.593 33.26 189.659 33.38 189.793C33.4867 189.913 33.54 190.093 33.54 190.333L33.54 197.173L32.38 197.173L32.38 190.793L32.66 191.133C31.9667 191.133 31.38 191.239 30.9 191.453C30.4067 191.653 30.0333 191.953 29.78 192.353C29.5267 192.739 29.4 193.226 29.4 193.813C29.4 194.453 29.5533 194.999 29.86 195.453C30.1533 195.906 30.5733 196.253 31.12 196.493C31.6533 196.733 32.2733 196.853 32.98 196.853L33.1 196.853C34.3 196.853 35.2067 196.566 35.82 195.993C36.4333 195.419 36.74 194.593 36.74 193.513C36.74 193.086 36.6867 192.653 36.58 192.213C36.4733 191.759 36.28 191.326 36 190.913C35.88 190.713 35.8267 190.533 35.84 190.373C35.84 190.199 35.8933 190.059 36 189.953C36.0933 189.846 36.2133 189.779 36.36 189.753C36.4933 189.726 36.64 189.746 36.8 189.813C36.96 189.879 37.1 190.006 37.22 190.193C37.5267 190.633 37.7667 191.159 37.94 191.773C38.1 192.373 38.18 192.953 38.18 193.513ZM33.42 186.515C33.42 186.728 33.3467 186.908 33.2 187.055C33.0533 187.201 32.8733 187.275 32.66 187.275C32.4467 187.275 32.2733 187.201 32.14 187.055C31.9933 186.908 31.92 186.728 31.92 186.515L31.92 182.055C31.92 181.855 31.9933 181.681 32.14 181.535C32.2733 181.375 32.4467 181.295 32.66 181.295C32.8733 181.295 33.0533 181.375 33.2 181.535C33.3467 181.681 33.42 181.855 33.42 182.055L33.42 186.515ZM38.14 177.44C38.14 177.706 38.06 177.913 37.9 178.06C37.74 178.206 37.5267 178.28 37.26 178.28L24.64 178.28C24.36 178.28 24.1467 178.206 24 178.06C23.84 177.9 23.76 177.686 23.76 177.42C23.76 177.18 23.8067 176.993 23.9 176.86C23.9933 176.713 24.1533 176.58 24.38 176.46L34.44 171.1L34.44 171.72L24.38 166.36C24.1533 166.24 23.9933 166.113 23.9 165.98C23.8067 165.846 23.76 165.66 23.76 165.42C23.76 165.153 23.84 164.946 24 164.8C24.1467 164.653 24.36 164.58 24.64 164.58L37.26 164.58C37.5267 164.58 37.74 164.653 37.9 164.8C38.06 164.933 38.14 165.14 38.14 165.42C38.14 165.7 38.06 165.913 37.9 166.06C37.74 166.193 37.5267 166.26 37.26 166.26L26.48 166.26L26.48 165.82L35.46 170.62C35.6333 170.726 35.7667 170.84 35.86 170.96C35.94 171.066 35.98 171.22 35.98 171.42C35.98 171.606 35.9333 171.766 35.84 171.9C35.7467 172.02 35.62 172.126 35.46 172.22L26.46 177.08L26.46 176.6L37.26 176.6C37.5267 176.6 37.74 176.673 37.9 176.82C38.06 176.953 38.14 177.16 38.14 177.44ZM38.18 156.892C38.18 157.945 37.98 158.852 37.58 159.612C37.1667 160.358 36.5867 160.938 35.84 161.352C35.08 161.765 34.1867 161.972 33.16 161.972C32.1467 161.972 31.26 161.772 30.5 161.372C29.74 160.958 29.1467 160.398 28.72 159.692C28.2933 158.972 28.08 158.152 28.08 157.232C28.08 156.578 28.1933 155.992 28.42 155.472C28.6333 154.938 28.9467 154.485 29.36 154.112C29.7733 153.738 30.28 153.458 30.88 153.272C31.4667 153.072 32.1333 152.972 32.88 152.972C33.0933 152.972 33.26 153.038 33.38 153.172C33.4867 153.292 33.54 153.472 33.54 153.712L33.54 160.552L32.38 160.552L32.38 154.172L32.66 154.512C31.9667 154.512 31.38 154.618 30.9 154.832C30.4067 155.032 30.0333 155.332 29.78 155.732C29.5267 156.118 29.4 156.605 29.4 157.192C29.4 157.832 29.5533 158.378 29.86 158.832C30.1533 159.285 30.5733 159.632 31.12 159.872C31.6533 160.112 32.2733 160.232 32.98 160.232L33.1 160.232C34.3 160.232 35.2067 159.945 35.82 159.372C36.4333 158.798 36.74 157.972 36.74 156.892C36.74 156.465 36.6867 156.032 36.58 155.592C36.4733 155.138 36.28 154.705 36 154.292C35.88 154.092 35.8267 153.912 35.84 153.752C35.84 153.578 35.8933 153.438 36 153.332C36.0933 153.225 36.2133 153.158 36.36 153.132C36.4933 153.105 36.64 153.125 36.8 153.192C36.96 153.258 37.1 153.385 37.22 153.572C37.5267 154.012 37.7667 154.538 37.94 155.152C38.1 155.752 38.18 156.332 38.18 156.892ZM38.14 149.808C38.14 150.088 38.06 150.308 37.9 150.468C37.74 150.628 37.5067 150.708 37.2 150.708L29.04 150.708C28.7333 150.708 28.5067 150.628 28.36 150.468C28.2 150.308 28.12 150.088 28.12 149.808C28.12 149.528 28.2 149.315 28.36 149.168C28.5067 149.008 28.7333 148.928 29.04 148.928L30.68 148.928L30.38 149.148C29.62 148.868 29.0467 148.415 28.66 147.788C28.2733 147.148 28.08 146.421 28.08 145.608C28.08 144.821 28.22 144.175 28.5 143.668C28.78 143.161 29.2067 142.781 29.78 142.528C30.3533 142.275 31.08 142.148 31.96 142.148L37.2 142.148C37.5067 142.148 37.74 142.228 37.9 142.388C38.06 142.535 38.14 142.755 38.14 143.048C38.14 143.341 38.06 143.568 37.9 143.728C37.74 143.888 37.5067 143.968 37.2 143.968L32.06 143.968C31.1933 143.968 30.56 144.135 30.16 144.468C29.76 144.801 29.56 145.335 29.56 146.068C29.56 146.921 29.8267 147.608 30.36 148.128C30.88 148.635 31.5867 148.888 32.48 148.888L37.2 148.888C37.8267 148.888 38.14 149.195 38.14 149.808ZM38.18 135.783C38.18 136.569 38.0333 137.229 37.74 137.763C37.4467 138.283 37.0133 138.669 36.44 138.923C35.8667 139.176 35.1467 139.303 34.28 139.303L29.04 139.303C28.7333 139.303 28.5067 139.229 28.36 139.083C28.2 138.923 28.12 138.696 28.12 138.403C28.12 138.109 28.2 137.883 28.36 137.723C28.5067 137.563 28.7333 137.483 29.04 137.483L34.28 137.483C35.1067 137.483 35.72 137.316 36.12 136.983C36.5067 136.649 36.7 136.123 36.7 135.403C36.7 134.603 36.4333 133.956 35.9 133.463C35.3667 132.956 34.66 132.703 33.78 132.703L29.04 132.703C28.7333 132.703 28.5067 132.629 28.36 132.483C28.2 132.323 28.12 132.096 28.12 131.803C28.12 131.509 28.2 131.283 28.36 131.123C28.5067 130.963 28.7333 130.883 29.04 130.883L37.2 130.883C37.8267 130.883 38.14 131.176 38.14 131.763C38.14 132.056 38.06 132.283 37.9 132.443C37.74 132.589 37.5067 132.663 37.2 132.663L35.46 132.663L35.8 132.403C36.5733 132.669 37.1667 133.103 37.58 133.703C37.98 134.289 38.18 134.983 38.18 135.783ZM38.18 118.599C38.18 119.559 37.9733 120.393 37.56 121.099C37.1467 121.806 36.56 122.353 35.8 122.739C35.04 123.126 34.1467 123.319 33.12 123.319C32.3467 123.319 31.6533 123.213 31.04 122.999C30.4133 122.773 29.88 122.453 29.44 122.039C29 121.626 28.6667 121.133 28.44 120.559C28.2 119.973 28.08 119.319 28.08 118.599C28.08 117.639 28.2867 116.806 28.7 116.099C29.1133 115.393 29.7 114.846 30.46 114.459C31.2067 114.073 32.0933 113.879 33.12 113.879C33.8933 113.879 34.5933 113.993 35.22 114.219C35.8467 114.433 36.38 114.746 36.82 115.159C37.26 115.573 37.6 116.073 37.84 116.659C38.0667 117.233 38.18 117.879 38.18 118.599ZM36.74 118.599C36.74 118.013 36.6 117.506 36.32 117.079C36.04 116.639 35.6333 116.306 35.1 116.079C34.5667 115.839 33.9067 115.719 33.12 115.719C31.9467 115.719 31.0533 115.979 30.44 116.499C29.8267 117.019 29.52 117.719 29.52 118.599C29.52 119.173 29.66 119.679 29.94 120.119C30.2067 120.546 30.6067 120.879 31.14 121.119C31.6733 121.359 32.3333 121.479 33.12 121.479C34.2933 121.479 35.1933 121.219 35.82 120.699C36.4333 120.166 36.74 119.466 36.74 118.599ZM25.94 116.819C25.94 117.139 25.8533 117.386 25.68 117.559C25.5067 117.733 25.26 117.819 24.94 117.819C24.62 117.819 24.38 117.733 24.22 117.559C24.0467 117.386 23.96 117.139 23.96 116.819C23.96 116.499 24.0467 116.253 24.22 116.079C24.38 115.906 24.62 115.819 24.94 115.819C25.26 115.819 25.5067 115.906 25.68 116.079C25.8533 116.239 25.94 116.486 25.94 116.819ZM25.94 120.359C25.94 120.679 25.8533 120.933 25.68 121.119C25.5067 121.293 25.26 121.379 24.94 121.379C24.62 121.379 24.38 121.293 24.22 121.119C24.0467 120.933 23.96 120.679 23.96 120.359C23.96 120.039 24.0467 119.793 24.22 119.619C24.38 119.446 24.62 119.359 24.94 119.359C25.26 119.359 25.5067 119.446 25.68 119.619C25.8533 119.793 25.94 120.039 25.94 120.359ZM38.14 110.165C38.14 110.459 38.06 110.685 37.9 110.845C37.74 111.005 37.5067 111.085 37.2 111.085L29.66 111.085L29.66 112.285C29.66 112.525 29.6 112.712 29.48 112.845C29.3467 112.979 29.1733 113.045 28.96 113.045C28.7333 113.045 28.56 112.979 28.44 112.845C28.32 112.712 28.26 112.525 28.26 112.285L28.26 110.585L28.74 111.085L28 111.085C26.7067 111.085 25.7267 110.772 25.06 110.145C24.38 109.505 23.9867 108.572 23.88 107.345L23.84 106.725C23.8133 106.525 23.8467 106.365 23.94 106.245C24.02 106.125 24.1267 106.045 24.26 106.005C24.3933 105.965 24.5333 105.965 24.68 106.005C24.8133 106.032 24.9333 106.092 25.04 106.185C25.1467 106.279 25.2067 106.399 25.22 106.545L25.24 106.985C25.3067 107.785 25.5467 108.365 25.96 108.725C26.36 109.085 26.96 109.265 27.76 109.265L28.56 109.265L28.26 109.525L28.26 107.225C28.26 106.972 28.32 106.779 28.44 106.645C28.56 106.512 28.7333 106.445 28.96 106.445C29.1733 106.445 29.3467 106.512 29.48 106.645C29.6 106.779 29.66 106.972 29.66 107.225L29.66 109.265L37.2 109.265C37.8267 109.265 38.14 109.565 38.14 110.165ZM38.14 103.72C38.14 104.013 38.06 104.24 37.9 104.4C37.74 104.56 37.5067 104.64 37.2 104.64L29.66 104.64L29.66 105.84C29.66 106.08 29.6 106.267 29.48 106.4C29.3467 106.533 29.1733 106.6 28.96 106.6C28.7333 106.6 28.56 106.533 28.44 106.4C28.32 106.267 28.26 106.08 28.26 105.84L28.26 104.14L28.74 104.64L28 104.64C26.7067 104.64 25.7267 104.327 25.06 103.7C24.38 103.06 23.9867 102.127 23.88 100.9L23.84 100.28C23.8133 100.08 23.8467 99.9202 23.94 99.8002C24.02 99.6802 24.1267 99.6002 24.26 99.5602C24.3933 99.5202 24.5333 99.5202 24.68 99.5602C24.8133 99.5868 24.9333 99.6468 25.04 99.7402C25.1467 99.8335 25.2067 99.9535 25.22 100.1L25.24 100.54C25.3067 101.34 25.5467 101.92 25.96 102.28C26.36 102.64 26.96 102.82 27.76 102.82L28.56 102.82L28.26 103.08L28.26 100.78C28.26 100.527 28.32 100.333 28.44 100.2C28.56 100.067 28.7333 100 28.96 100C29.1733 100 29.3467 100.067 29.48 100.2C29.6 100.333 29.66 100.527 29.66 100.78L29.66 102.82L37.2 102.82C37.8267 102.82 38.14 103.12 38.14 103.72ZM38.14 97.5033C38.14 97.7833 38.06 98.0033 37.9 98.1633C37.74 98.3233 37.5067 98.4033 37.2 98.4033L29.04 98.4033C28.7333 98.4033 28.5067 98.3233 28.36 98.1633C28.2 98.0033 28.12 97.7833 28.12 97.5033C28.12 97.2233 28.2 97.0099 28.36 96.8633C28.5067 96.7033 28.7333 96.6233 29.04 96.6233L30.68 96.6233L30.38 96.8433C29.62 96.5633 29.0467 96.1099 28.66 95.4833C28.2733 94.8433 28.08 94.1166 28.08 93.3033C28.08 92.5166 28.22 91.8699 28.5 91.3633C28.78 90.8566 29.2067 90.4766 29.78 90.2233C30.3533 89.9699 31.08 89.8433 31.96 89.8433L37.2 89.8433C37.5067 89.8433 37.74 89.9233 37.9 90.0833C38.06 90.2299 38.14 90.4499 38.14 90.7433C38.14 91.0366 38.06 91.2633 37.9 91.4233C37.74 91.5833 37.5067 91.6633 37.2 91.6633L32.06 91.6633C31.1933 91.6633 30.56 91.8299 30.16 92.1633C29.76 92.4966 29.56 93.0299 29.56 93.7633C29.56 94.6166 29.8267 95.3033 30.36 95.8233C30.88 96.3299 31.5867 96.5833 32.48 96.5833L37.2 96.5833C37.8267 96.5833 38.14 96.8899 38.14 97.5033ZM38.18 82.458C38.18 83.5113 37.98 84.418 37.58 85.178C37.1667 85.9246 36.5867 86.5046 35.84 86.918C35.08 87.3313 34.1867 87.538 33.16 87.538C32.1467 87.538 31.26 87.338 30.5 86.938C29.74 86.5246 29.1467 85.9646 28.72 85.258C28.2933 84.538 28.08 83.718 28.08 82.798C28.08 82.1446 28.1933 81.558 28.42 81.038C28.6333 80.5046 28.9467 80.0513 29.36 79.678C29.7733 79.3046 30.28 79.0246 30.88 78.838C31.4667 78.638 32.1333 78.538 32.88 78.538C33.0933 78.538 33.26 78.6046 33.38 78.738C33.4867 78.858 33.54 79.038 33.54 79.278L33.54 86.118L32.38 86.118L32.38 79.738L32.66 80.078C31.9667 80.078 31.38 80.1846 30.9 80.398C30.4067 80.598 30.0333 80.898 29.78 81.298C29.5267 81.6846 29.4 82.1713 29.4 82.758C29.4 83.398 29.5533 83.9446 29.86 84.398C30.1533 84.8513 30.5733 85.198 31.12 85.438C31.6533 85.678 32.2733 85.798 32.98 85.798L33.1 85.798C34.3 85.798 35.2067 85.5113 35.82 84.938C36.4333 84.3646 36.74 83.538 36.74 82.458C36.74 82.0313 36.6867 81.598 36.58 81.158C36.4733 80.7046 36.28 80.2713 36 79.858C35.88 79.658 35.8267 79.478 35.84 79.318C35.84 79.1446 35.8933 79.0046 36 78.898C36.0933 78.7913 36.2133 78.7246 36.36 78.698C36.4933 78.6713 36.64 78.6913 36.8 78.758C36.96 78.8246 37.1 78.9513 37.22 79.138C37.5267 79.578 37.7667 80.1046 37.94 80.718C38.1 81.318 38.18 81.898 38.18 82.458ZM38.14 75.3744C38.14 75.6544 38.06 75.8744 37.9 76.0344C37.74 76.1944 37.5067 76.2744 37.2 76.2744L29.04 76.2744C28.7333 76.2744 28.5067 76.1944 28.36 76.0344C28.2 75.8744 28.12 75.6544 28.12 75.3744C28.12 75.0944 28.2 74.881 28.36 74.7344C28.5067 74.5744 28.7333 74.4944 29.04 74.4944L30.68 74.4944L30.38 74.7144C29.62 74.4344 29.0467 73.981 28.66 73.3544C28.2733 72.7144 28.08 71.9877 28.08 71.1744C28.08 70.3877 28.22 69.741 28.5 69.2344C28.78 68.7277 29.2067 68.3477 29.78 68.0944C30.3533 67.841 31.08 67.7144 31.96 67.7144L37.2 67.7144C37.5067 67.7144 37.74 67.7944 37.9 67.9544C38.06 68.101 38.14 68.321 38.14 68.6144C38.14 68.9077 38.06 69.1344 37.9 69.2944C37.74 69.4544 37.5067 69.5344 37.2 69.5344L32.06 69.5344C31.1933 69.5344 30.56 69.701 30.16 70.0344C29.76 70.3677 29.56 70.901 29.56 71.6344C29.56 72.4877 29.8267 73.1744 30.36 73.6944C30.88 74.201 31.5867 74.4544 32.48 74.4544L37.2 74.4544C37.8267 74.4544 38.14 74.761 38.14 75.3744Z" fill="black"/>
</g>
<defs>
<filter id="filter0_d_1854_19292" x="0" y="0" width="70" height="324" filterUnits="userSpaceOnUse" color-interpolation-filters="sRGB">
<feFlood flood-opacity="0" result="BackgroundImageFix"/>
<feColorMatrix in="SourceAlpha" type="matrix" values="0 0 0 0 0 0 0 0 0 0 0 0 0 0 0 0 0 0 127 0" result="hardAlpha"/>
<feOffset dx="4" dy="4"/>
<feGaussianBlur stdDeviation="3.5"/>
<feComposite in2="hardAlpha" operator="out"/>
<feColorMatrix type="matrix" values="0 0 0 0 0 0 0 0 0 0 0 0 0 0 0 0 0 0 0.2 0"/>
<feBlend mode="normal" in2="BackgroundImageFix" result="effect1_dropShadow_1854_19292"/>
<feBlend mode="normal" in="SourceGraphic" in2="effect1_dropShadow_1854_19292" result="shape"/>
</filter>
</defs>
</svg>
