<svg width="74" height="324" viewBox="0 0 74 324" fill="none" xmlns="http://www.w3.org/2000/svg">
<g filter="url(#filter0_d_1854_19299)">
<path d="M3 3H33C49.5685 3 63 16.4315 63 33V283C63 299.569 49.5685 313 33 313H3V3Z" fill="white"/>
<rect x="25" y="31" width="16" height="16" rx="1" stroke="#444DF2" stroke-width="2.5"/>
<path d="M30.7144 31V47" stroke="#444DF2" stroke-width="2.5"/>
<path d="M34.143 41.2856L36.0752 39.3535C36.2704 39.1582 36.2704 38.8416 36.0752 38.6464L34.143 36.7142" stroke="#444DF2" stroke-width="2.5" stroke-linecap="round"/>
<path d="M40.16 286.5C40.16 286.86 40.0733 287.153 39.9 287.38C39.7267 287.593 39.4533 287.767 39.08 287.9L27.26 292.08C26.8333 292.227 26.4733 292.2 26.18 292C25.8867 291.787 25.74 291.433 25.74 290.94C25.74 290.58 25.8267 290.3 26 290.1C26.16 289.9 26.42 289.74 26.78 289.62L37.46 286.02L37.46 286.82L26.8 283.06C26.44 282.927 26.1733 282.76 26 282.56C25.8267 282.36 25.74 282.1 25.74 281.78C25.74 281.46 25.8267 281.207 26 281.02C26.1733 280.833 26.4467 280.673 26.82 280.54L37.46 276.9L37.46 277.6L26.78 273.94C26.4333 273.82 26.1733 273.66 26 273.46C25.8267 273.26 25.74 272.987 25.74 272.64C25.74 272.213 25.8867 271.9 26.18 271.7C26.4733 271.5 26.8333 271.473 27.26 271.62L39.1 275.84C39.46 275.973 39.7267 276.147 39.9 276.36C40.0733 276.573 40.16 276.86 40.16 277.22C40.16 277.58 40.0733 277.867 39.9 278.08C39.7267 278.293 39.4533 278.467 39.08 278.6L29.16 282.08L29.16 281.62L39.1 285.14C39.46 285.273 39.7267 285.447 39.9 285.66C40.0733 285.86 40.16 286.14 40.16 286.5ZM40.2 266.224C40.2 267.238 39.9933 268.118 39.58 268.864C39.1667 269.611 38.58 270.191 37.82 270.604C37.0467 271.018 36.14 271.224 35.1 271.224C34.3133 271.224 33.6133 271.111 33 270.884C32.3733 270.644 31.84 270.304 31.4 269.864C30.9467 269.424 30.6067 268.898 30.38 268.284C30.14 267.671 30.02 266.984 30.02 266.224C30.02 265.211 30.2267 264.331 30.64 263.584C31.0533 262.838 31.64 262.258 32.4 261.844C33.16 261.431 34.06 261.224 35.1 261.224C35.8867 261.224 36.5933 261.344 37.22 261.584C37.8467 261.811 38.3867 262.144 38.84 262.584C39.28 263.024 39.62 263.551 39.86 264.164C40.0867 264.778 40.2 265.464 40.2 266.224ZM38.3 266.224C38.3 265.731 38.18 265.298 37.94 264.924C37.7 264.551 37.3467 264.264 36.88 264.064C36.4 263.851 35.8067 263.744 35.1 263.744C34.0333 263.744 33.24 263.971 32.72 264.424C32.1867 264.878 31.92 265.478 31.92 266.224C31.92 266.718 32.04 267.151 32.28 267.524C32.5067 267.898 32.86 268.191 33.34 268.404C33.8067 268.604 34.3933 268.704 35.1 268.704C36.1533 268.704 36.9533 268.478 37.5 268.024C38.0333 267.571 38.3 266.971 38.3 266.224ZM40.16 257.881C40.16 258.294 40.0533 258.614 39.84 258.841C39.6133 259.054 39.2933 259.161 38.88 259.161L31.32 259.161C30.9067 259.161 30.5933 259.054 30.38 258.841C30.1667 258.628 30.06 258.328 30.06 257.941C30.06 257.554 30.1667 257.254 30.38 257.041C30.5933 256.828 30.9067 256.721 31.32 256.721L32.58 256.721L32.58 256.921C31.78 256.734 31.1733 256.368 30.76 255.821C30.3467 255.274 30.1 254.548 30.02 253.641C29.9933 253.361 30.0667 253.141 30.24 252.981C30.4 252.808 30.6533 252.708 31 252.681C31.3333 252.654 31.6067 252.734 31.82 252.921C32.02 253.094 32.14 253.361 32.18 253.721L32.22 254.161C32.3 254.974 32.5533 255.588 32.98 256.001C33.3933 256.414 33.98 256.621 34.74 256.621L38.88 256.621C39.2933 256.621 39.6133 256.728 39.84 256.941C40.0533 257.154 40.16 257.468 40.16 257.881ZM40.16 250.089C40.16 250.489 40.0533 250.796 39.84 251.009C39.6133 251.222 39.2933 251.329 38.88 251.329L27 251.329C26.5867 251.329 26.2733 251.222 26.06 251.009C25.8467 250.796 25.74 250.489 25.74 250.089C25.74 249.689 25.8467 249.382 26.06 249.169C26.2733 248.942 26.5867 248.829 27 248.829L34.38 248.829L34.38 248.789L30.9 245.489C30.6333 245.222 30.4267 244.989 30.28 244.789C30.1333 244.589 30.06 244.316 30.06 243.969C30.06 243.622 30.1533 243.362 30.34 243.189C30.5133 243.002 30.7267 242.909 30.98 242.909C31.2333 242.909 31.4867 243.029 31.74 243.269L35.42 246.749L34.38 246.749L38.5 242.929C38.7533 242.689 39.0133 242.582 39.28 242.609C39.5333 242.622 39.7467 242.729 39.92 242.929C40.08 243.129 40.16 243.382 40.16 243.689C40.16 244.062 40.0867 244.362 39.94 244.589C39.7933 244.802 39.5733 245.042 39.28 245.309L35.64 248.789L35.64 248.829L38.88 248.829C39.7333 248.829 40.16 249.249 40.16 250.089ZM40.2 237.182C40.2 237.756 40.14 238.362 40.02 239.002C39.9 239.642 39.6933 240.216 39.4 240.722C39.2667 240.936 39.1133 241.089 38.94 241.182C38.7533 241.262 38.5733 241.296 38.4 241.282C38.2133 241.256 38.0533 241.189 37.92 241.082C37.7867 240.962 37.7 240.816 37.66 240.642C37.62 240.456 37.6533 240.256 37.76 240.042C38.0133 239.509 38.1933 239.009 38.3 238.542C38.3933 238.076 38.44 237.616 38.44 237.162C38.44 236.522 38.3333 236.049 38.12 235.742C37.8933 235.422 37.6 235.262 37.24 235.262C36.9333 235.262 36.7 235.369 36.54 235.582C36.3667 235.782 36.24 236.089 36.16 236.502L35.78 238.502C35.62 239.329 35.32 239.962 34.88 240.402C34.4267 240.829 33.8467 241.042 33.14 241.042C32.5 241.042 31.9467 240.869 31.48 240.522C31.0133 240.162 30.6533 239.669 30.4 239.042C30.1467 238.416 30.02 237.696 30.02 236.882C30.02 236.296 30.0867 235.749 30.22 235.242C30.34 234.722 30.5333 234.222 30.8 233.742C30.9067 233.542 31.0467 233.409 31.22 233.342C31.3933 233.262 31.5733 233.242 31.76 233.282C31.9333 233.322 32.0933 233.402 32.24 233.522C32.3733 233.642 32.46 233.796 32.5 233.982C32.5267 234.156 32.4867 234.356 32.38 234.582C32.1667 234.996 32.0133 235.396 31.92 235.782C31.8267 236.156 31.78 236.516 31.78 236.862C31.78 237.516 31.8933 238.002 32.12 238.322C32.3467 238.629 32.6467 238.782 33.02 238.782C33.3 238.782 33.5333 238.689 33.72 238.502C33.9067 238.316 34.0333 238.029 34.1 237.642L34.48 235.642C34.64 234.776 34.9333 234.122 35.36 233.682C35.7867 233.229 36.36 233.002 37.08 233.002C38.0533 233.002 38.82 233.382 39.38 234.142C39.9267 234.902 40.2 235.916 40.2 237.182ZM43.76 229.757C43.76 230.157 43.6533 230.464 43.44 230.677C43.2267 230.89 42.9133 230.997 42.5 230.997L31.32 230.997C30.9067 230.997 30.5933 230.89 30.38 230.677C30.1667 230.464 30.06 230.164 30.06 229.777C30.06 229.377 30.1667 229.07 30.38 228.857C30.5933 228.644 30.9067 228.537 31.32 228.537L32.88 228.537L32.28 228.757C31.6 228.557 31.0533 228.15 30.64 227.537C30.2267 226.91 30.02 226.184 30.02 225.357C30.02 224.504 30.2267 223.757 30.64 223.117C31.0533 222.464 31.64 221.957 32.4 221.597C33.1467 221.237 34.0467 221.057 35.1 221.057C36.14 221.057 37.0467 221.237 37.82 221.597C38.58 221.957 39.1667 222.457 39.58 223.097C39.9933 223.737 40.2 224.49 40.2 225.357C40.2 226.17 40 226.884 39.6 227.497C39.1867 228.11 38.6533 228.524 38 228.737L38 228.497L42.5 228.497C42.9133 228.497 43.2267 228.61 43.44 228.837C43.6533 229.05 43.76 229.357 43.76 229.757ZM38.3 226.057C38.3 225.564 38.18 225.13 37.94 224.757C37.7 224.384 37.3467 224.097 36.88 223.897C36.4 223.684 35.8067 223.577 35.1 223.577C34.0333 223.577 33.24 223.804 32.72 224.257C32.1867 224.71 31.92 225.31 31.92 226.057C31.92 226.55 32.04 226.984 32.28 227.357C32.5067 227.73 32.86 228.024 33.34 228.237C33.8067 228.437 34.3933 228.537 35.1 228.537C36.1533 228.537 36.9533 228.31 37.5 227.857C38.0333 227.404 38.3 226.804 38.3 226.057ZM40.2 215.785C40.2 216.491 40.0667 217.125 39.8 217.685C39.52 218.231 39.1467 218.665 38.68 218.985C38.2133 219.291 37.6867 219.445 37.1 219.445C36.38 219.445 35.8133 219.258 35.4 218.885C34.9733 218.511 34.6667 217.905 34.48 217.065C34.2933 216.225 34.2 215.098 34.2 213.685L34.2 212.685L35.64 212.685L35.64 213.665C35.64 214.491 35.68 215.151 35.76 215.645C35.84 216.138 35.98 216.491 36.18 216.705C36.3667 216.905 36.6333 217.005 36.98 217.005C37.42 217.005 37.78 216.851 38.06 216.545C38.34 216.238 38.48 215.811 38.48 215.265C38.48 214.825 38.38 214.438 38.18 214.105C37.9667 213.758 37.68 213.485 37.32 213.285C36.96 213.085 36.5467 212.985 36.08 212.985L33.78 212.985C33.1133 212.985 32.6333 213.131 32.34 213.425C32.0467 213.718 31.9 214.211 31.9 214.905C31.9 215.291 31.9467 215.711 32.04 216.165C32.1333 216.605 32.2933 217.071 32.52 217.565C32.64 217.818 32.6733 218.045 32.62 218.245C32.5667 218.431 32.46 218.578 32.3 218.685C32.1267 218.791 31.94 218.845 31.74 218.845C31.54 218.845 31.3467 218.791 31.16 218.685C30.96 218.578 30.8133 218.398 30.72 218.145C30.4667 217.531 30.2867 216.945 30.18 216.385C30.0733 215.811 30.02 215.291 30.02 214.825C30.02 213.865 30.1667 213.078 30.46 212.465C30.7533 211.838 31.2 211.371 31.8 211.065C32.3867 210.758 33.1467 210.605 34.08 210.605L38.88 210.605C39.2933 210.605 39.6133 210.705 39.84 210.905C40.0533 211.105 40.16 211.391 40.16 211.765C40.16 212.138 40.0533 212.431 39.84 212.645C39.6133 212.845 39.2933 212.945 38.88 212.945L37.92 212.945L37.92 212.785C38.3867 212.878 38.7933 213.065 39.14 213.345C39.4733 213.611 39.7333 213.951 39.92 214.365C40.1067 214.778 40.2 215.251 40.2 215.785ZM40.2 203.547C40.2 204.574 39.9933 205.467 39.58 206.227C39.1533 206.987 38.5533 207.574 37.78 207.987C37.0067 208.401 36.1 208.607 35.06 208.607C34.2733 208.607 33.5733 208.494 32.96 208.267C32.3333 208.027 31.8067 207.687 31.38 207.247C30.94 206.807 30.6067 206.274 30.38 205.647C30.14 205.021 30.02 204.321 30.02 203.547C30.02 203.107 30.08 202.634 30.2 202.127C30.32 201.607 30.52 201.121 30.8 200.667C30.9333 200.454 31.0933 200.314 31.28 200.247C31.4667 200.181 31.66 200.167 31.86 200.207C32.0467 200.247 32.2133 200.334 32.36 200.467C32.4933 200.587 32.58 200.741 32.62 200.927C32.6467 201.114 32.6 201.321 32.48 201.547C32.3067 201.841 32.18 202.141 32.1 202.447C32.0067 202.754 31.96 203.047 31.96 203.327C31.96 203.767 32.0333 204.154 32.18 204.487C32.3133 204.821 32.5133 205.107 32.78 205.347C33.0333 205.574 33.3533 205.747 33.74 205.867C34.1267 205.987 34.5733 206.047 35.08 206.047C36.0667 206.047 36.8467 205.814 37.42 205.347C37.98 204.867 38.26 204.194 38.26 203.327C38.26 203.047 38.22 202.761 38.14 202.467C38.06 202.161 37.9333 201.854 37.76 201.547C37.64 201.321 37.6 201.121 37.64 200.947C37.68 200.761 37.7733 200.607 37.92 200.487C38.0533 200.367 38.22 200.294 38.42 200.267C38.6067 200.241 38.7933 200.267 38.98 200.347C39.1667 200.414 39.32 200.547 39.44 200.747C39.7067 201.187 39.9 201.654 40.02 202.147C40.14 202.641 40.2 203.107 40.2 203.547ZM40.2 194.009C40.2 195.116 39.9933 196.069 39.58 196.869C39.1667 197.669 38.58 198.289 37.82 198.729C37.06 199.156 36.16 199.369 35.12 199.369C34.1067 199.369 33.22 199.162 32.46 198.749C31.7 198.322 31.1067 197.742 30.68 197.009C30.24 196.262 30.02 195.416 30.02 194.469C30.02 193.776 30.1333 193.156 30.36 192.609C30.5867 192.049 30.9133 191.576 31.34 191.189C31.7667 190.789 32.2867 190.489 32.9 190.289C33.5 190.076 34.18 189.969 34.94 189.969C35.18 189.969 35.3667 190.056 35.5 190.229C35.62 190.389 35.68 190.622 35.68 190.929L35.68 197.349L34.24 197.349L34.24 191.729L34.54 192.049C33.9267 192.049 33.4133 192.142 33 192.329C32.5867 192.502 32.2733 192.762 32.06 193.109C31.8333 193.442 31.72 193.862 31.72 194.369C31.72 194.929 31.8533 195.409 32.12 195.809C32.3733 196.196 32.74 196.496 33.22 196.709C33.6867 196.909 34.2467 197.009 34.9 197.009L35.04 197.009C36.1333 197.009 36.9533 196.756 37.5 196.249C38.0333 195.729 38.3 194.969 38.3 193.969C38.3 193.622 38.26 193.236 38.18 192.809C38.0867 192.369 37.9333 191.956 37.72 191.569C37.56 191.289 37.4933 191.042 37.52 190.829C37.5333 190.616 37.6067 190.449 37.74 190.329C37.8733 190.196 38.04 190.116 38.24 190.089C38.4267 190.062 38.62 190.102 38.82 190.209C39.02 190.302 39.1933 190.469 39.34 190.709C39.6333 191.176 39.8533 191.716 40 192.329C40.1333 192.929 40.2 193.489 40.2 194.009ZM35.64 186.815C35.64 187.108 35.5467 187.355 35.36 187.555C35.16 187.742 34.92 187.835 34.64 187.835C34.3467 187.835 34.1067 187.742 33.92 187.555C33.7333 187.355 33.64 187.108 33.64 186.815L33.64 182.555C33.64 182.275 33.7333 182.042 33.92 181.855C34.1067 181.655 34.3467 181.555 34.64 181.555C34.92 181.555 35.16 181.655 35.36 181.855C35.5467 182.042 35.64 182.275 35.64 182.555L35.64 186.815ZM40.16 177.623C40.16 177.997 40.0533 178.283 39.84 178.483C39.6267 178.683 39.3333 178.783 38.96 178.783L26.94 178.783C26.5533 178.783 26.26 178.677 26.06 178.463C25.8467 178.25 25.74 177.957 25.74 177.583C25.74 177.25 25.8067 176.99 25.94 176.803C26.06 176.603 26.2733 176.423 26.58 176.263L35.72 171.323L35.72 171.963L26.58 167.023C26.2733 166.863 26.06 166.69 25.94 166.503C25.8067 166.317 25.74 166.057 25.74 165.723C25.74 165.35 25.8467 165.063 26.06 164.863C26.26 164.663 26.5533 164.563 26.94 164.563L38.96 164.563C39.3333 164.563 39.6267 164.663 39.84 164.863C40.0533 165.05 40.16 165.337 40.16 165.723C40.16 166.097 40.0533 166.383 39.84 166.583C39.6267 166.783 39.3333 166.883 38.96 166.883L29.7 166.883L29.7 166.443L37.36 170.643C37.5867 170.777 37.7533 170.917 37.86 171.063C37.9667 171.21 38.02 171.41 38.02 171.663C38.02 171.917 37.9667 172.123 37.86 172.283C37.74 172.443 37.5733 172.583 37.36 172.703L29.68 176.943L29.68 176.463L38.96 176.463C39.3333 176.463 39.6267 176.563 39.84 176.763C40.0533 176.95 40.16 177.237 40.16 177.623ZM40.2 156.88C40.2 157.987 39.9933 158.94 39.58 159.74C39.1667 160.54 38.58 161.16 37.82 161.6C37.06 162.027 36.16 162.24 35.12 162.24C34.1067 162.24 33.22 162.033 32.46 161.62C31.7 161.193 31.1067 160.613 30.68 159.88C30.24 159.133 30.02 158.287 30.02 157.34C30.02 156.647 30.1333 156.027 30.36 155.48C30.5867 154.92 30.9133 154.447 31.34 154.06C31.7667 153.66 32.2867 153.36 32.9 153.16C33.5 152.947 34.18 152.84 34.94 152.84C35.18 152.84 35.3667 152.927 35.5 153.1C35.62 153.26 35.68 153.493 35.68 153.8L35.68 160.22L34.24 160.22L34.24 154.6L34.54 154.92C33.9267 154.92 33.4133 155.013 33 155.2C32.5867 155.373 32.2733 155.633 32.06 155.98C31.8333 156.313 31.72 156.733 31.72 157.24C31.72 157.8 31.8533 158.28 32.12 158.68C32.3733 159.067 32.74 159.367 33.22 159.58C33.6867 159.78 34.2467 159.88 34.9 159.88L35.04 159.88C36.1333 159.88 36.9533 159.627 37.5 159.12C38.0333 158.6 38.3 157.84 38.3 156.84C38.3 156.493 38.26 156.107 38.18 155.68C38.0867 155.24 37.9333 154.827 37.72 154.44C37.56 154.16 37.4933 153.913 37.52 153.7C37.5333 153.487 37.6067 153.32 37.74 153.2C37.8733 153.067 38.04 152.987 38.24 152.96C38.4267 152.933 38.62 152.973 38.82 153.08C39.02 153.173 39.1933 153.34 39.34 153.58C39.6333 154.047 39.8533 154.587 40 155.2C40.1333 155.8 40.2 156.36 40.2 156.88ZM40.16 149.62C40.16 150.02 40.0533 150.327 39.84 150.54C39.6133 150.753 39.2933 150.86 38.88 150.86L31.32 150.86C30.9067 150.86 30.5933 150.753 30.38 150.54C30.1667 150.327 30.06 150.027 30.06 149.64C30.06 149.253 30.1667 148.953 30.38 148.74C30.5933 148.527 30.9067 148.42 31.32 148.42L32.68 148.42L32.18 148.64C31.4733 148.347 30.94 147.893 30.58 147.28C30.2067 146.653 30.02 145.947 30.02 145.16C30.02 144.373 30.1667 143.727 30.46 143.22C30.7533 142.713 31.2 142.333 31.8 142.08C32.3867 141.827 33.1333 141.7 34.04 141.7L38.88 141.7C39.2933 141.7 39.6133 141.807 39.84 142.02C40.0533 142.233 40.16 142.54 40.16 142.94C40.16 143.34 40.0533 143.653 39.84 143.88C39.6133 144.093 39.2933 144.2 38.88 144.2L34.16 144.2C33.4 144.2 32.8467 144.347 32.5 144.64C32.1533 144.92 31.98 145.36 31.98 145.96C31.98 146.693 32.2133 147.28 32.68 147.72C33.1333 148.147 33.74 148.36 34.5 148.36L38.88 148.36C39.7333 148.36 40.16 148.78 40.16 149.62ZM40.2 135.621C40.2 136.434 40.0533 137.108 39.76 137.641C39.4533 138.174 39 138.574 38.4 138.841C37.8 139.094 37.0533 139.221 36.16 139.221L31.32 139.221C30.8933 139.221 30.58 139.114 30.38 138.901C30.1667 138.688 30.06 138.381 30.06 137.981C30.06 137.581 30.1667 137.274 30.38 137.061C30.58 136.834 30.8933 136.721 31.32 136.721L36.2 136.721C36.8933 136.721 37.4067 136.581 37.74 136.301C38.0733 136.021 38.24 135.574 38.24 134.961C38.24 134.294 38.0133 133.748 37.56 133.321C37.0933 132.894 36.48 132.681 35.72 132.681L31.32 132.681C30.8933 132.681 30.58 132.574 30.38 132.361C30.1667 132.148 30.06 131.841 30.06 131.441C30.06 131.041 30.1667 130.734 30.38 130.521C30.58 130.294 30.8933 130.181 31.32 130.181L38.88 130.181C39.7333 130.181 40.16 130.588 40.16 131.401C40.16 131.788 40.0533 132.088 39.84 132.301C39.6133 132.514 39.2933 132.621 38.88 132.621L37.36 132.621L37.96 132.341C38.68 132.621 39.2333 133.048 39.62 133.621C40.0067 134.181 40.2 134.848 40.2 135.621ZM40.2 117.689C40.2 118.703 39.9933 119.583 39.58 120.329C39.1667 121.076 38.58 121.656 37.82 122.069C37.0467 122.483 36.14 122.689 35.1 122.689C34.3133 122.689 33.6133 122.576 33 122.349C32.3733 122.109 31.84 121.769 31.4 121.329C30.9467 120.889 30.6067 120.363 30.38 119.749C30.14 119.136 30.02 118.449 30.02 117.689C30.02 116.676 30.2267 115.796 30.64 115.049C31.0533 114.303 31.64 113.723 32.4 113.309C33.16 112.896 34.06 112.689 35.1 112.689C35.8867 112.689 36.5933 112.809 37.22 113.049C37.8467 113.276 38.3867 113.609 38.84 114.049C39.28 114.489 39.62 115.016 39.86 115.629C40.0867 116.243 40.2 116.929 40.2 117.689ZM38.3 117.689C38.3 117.196 38.18 116.763 37.94 116.389C37.7 116.016 37.3467 115.729 36.88 115.529C36.4 115.316 35.8067 115.209 35.1 115.209C34.0333 115.209 33.24 115.436 32.72 115.889C32.1867 116.343 31.92 116.943 31.92 117.689C31.92 118.183 32.04 118.616 32.28 118.989C32.5067 119.363 32.86 119.656 33.34 119.869C33.8067 120.069 34.3933 120.169 35.1 120.169C36.1533 120.169 36.9533 119.943 37.5 119.489C38.0333 119.036 38.3 118.436 38.3 117.689ZM28.14 115.789C28.14 116.189 28.0333 116.496 27.82 116.709C27.6067 116.923 27.3 117.029 26.9 117.029C26.5133 117.029 26.2133 116.923 26 116.709C25.7867 116.496 25.68 116.189 25.68 115.789C25.68 115.403 25.7867 115.103 26 114.889C26.2133 114.676 26.5133 114.569 26.9 114.569C27.3 114.569 27.6067 114.676 27.82 114.889C28.0333 115.089 28.14 115.389 28.14 115.789ZM28.14 119.569C28.14 119.956 28.0333 120.263 27.82 120.489C27.6067 120.703 27.3 120.809 26.9 120.809C26.5133 120.809 26.2133 120.703 26 120.489C25.7867 120.263 25.68 119.956 25.68 119.569C25.68 119.169 25.7867 118.863 26 118.649C26.2133 118.436 26.5133 118.329 26.9 118.329C27.3 118.329 27.6067 118.436 27.82 118.649C28.0333 118.863 28.14 119.169 28.14 119.569ZM40.16 108.803C40.16 109.203 40.0533 109.517 39.84 109.743C39.6133 109.957 39.2933 110.063 38.88 110.063L32.1 110.063L32.1 110.983C32.1 111.303 32.02 111.55 31.86 111.723C31.6867 111.897 31.4533 111.983 31.16 111.983C30.8533 111.983 30.62 111.897 30.46 111.723C30.3 111.55 30.22 111.303 30.22 110.983L30.22 109.343L30.88 110.063L30.2 110.063C28.8267 110.063 27.8 109.717 27.12 109.023C26.4267 108.33 26.02 107.33 25.9 106.023L25.84 105.343C25.8133 105.077 25.86 104.863 25.98 104.703C26.0867 104.543 26.2333 104.437 26.42 104.383C26.5933 104.33 26.7733 104.323 26.96 104.363C27.1467 104.403 27.3133 104.49 27.46 104.623C27.5933 104.743 27.6667 104.903 27.68 105.103L27.7 105.383C27.7533 106.143 27.9467 106.697 28.28 107.043C28.6133 107.39 29.12 107.563 29.8 107.563L30.54 107.563L30.22 107.883L30.22 105.863C30.22 105.543 30.3 105.297 30.46 105.123C30.62 104.95 30.8533 104.863 31.16 104.863C31.4533 104.863 31.6867 104.95 31.86 105.123C32.02 105.297 32.1 105.543 32.1 105.863L32.1 107.563L38.88 107.563C39.7333 107.563 40.16 107.977 40.16 108.803ZM40.16 101.967C40.16 102.367 40.0533 102.681 39.84 102.907C39.6133 103.121 39.2933 103.227 38.88 103.227L32.1 103.227L32.1 104.147C32.1 104.467 32.02 104.714 31.86 104.887C31.6867 105.061 31.4533 105.147 31.16 105.147C30.8533 105.147 30.62 105.061 30.46 104.887C30.3 104.714 30.22 104.467 30.22 104.147L30.22 102.507L30.88 103.227L30.2 103.227C28.8267 103.227 27.8 102.881 27.12 102.187C26.4267 101.494 26.02 100.494 25.9 99.1875L25.84 98.5075C25.8133 98.2408 25.86 98.0275 25.98 97.8675C26.0867 97.7075 26.2333 97.6008 26.42 97.5475C26.5933 97.4942 26.7733 97.4875 26.96 97.5275C27.1467 97.5675 27.3133 97.6542 27.46 97.7875C27.5933 97.9075 27.6667 98.0675 27.68 98.2675L27.7 98.5475C27.7533 99.3075 27.9467 99.8608 28.28 100.207C28.6133 100.554 29.12 100.727 29.8 100.727L30.54 100.727L30.22 101.047L30.22 99.0275C30.22 98.7075 30.3 98.4608 30.46 98.2875C30.62 98.1142 30.8533 98.0275 31.16 98.0275C31.4533 98.0275 31.6867 98.1142 31.86 98.2875C32.02 98.4608 32.1 98.7075 32.1 99.0275L32.1 100.727L38.88 100.727C39.7333 100.727 40.16 101.141 40.16 101.967ZM40.16 95.3623C40.16 95.7623 40.0533 96.069 39.84 96.2823C39.6133 96.4957 39.2933 96.6023 38.88 96.6023L31.32 96.6023C30.9067 96.6023 30.5933 96.4957 30.38 96.2823C30.1667 96.069 30.06 95.769 30.06 95.3823C30.06 94.9957 30.1667 94.6957 30.38 94.4823C30.5933 94.269 30.9067 94.1623 31.32 94.1623L32.68 94.1623L32.18 94.3823C31.4733 94.089 30.94 93.6357 30.58 93.0223C30.2067 92.3957 30.02 91.689 30.02 90.9023C30.02 90.1157 30.1667 89.469 30.46 88.9623C30.7533 88.4557 31.2 88.0757 31.8 87.8223C32.3867 87.569 33.1333 87.4423 34.04 87.4423L38.88 87.4423C39.2933 87.4423 39.6133 87.549 39.84 87.7623C40.0533 87.9757 40.16 88.2823 40.16 88.6823C40.16 89.0823 40.0533 89.3957 39.84 89.6223C39.6133 89.8357 39.2933 89.9423 38.88 89.9423L34.16 89.9423C33.4 89.9423 32.8467 90.089 32.5 90.3823C32.1533 90.6623 31.98 91.1023 31.98 91.7023C31.98 92.4357 32.2133 93.0223 32.68 93.4623C33.1333 93.889 33.74 94.1023 34.5 94.1023L38.88 94.1023C39.7333 94.1023 40.16 94.5223 40.16 95.3623ZM40.2 80.0831C40.2 81.1898 39.9933 82.1431 39.58 82.9431C39.1667 83.7431 38.58 84.3631 37.82 84.8031C37.06 85.2298 36.16 85.4431 35.12 85.4431C34.1067 85.4431 33.22 85.2365 32.46 84.8231C31.7 84.3965 31.1067 83.8165 30.68 83.0831C30.24 82.3365 30.02 81.4898 30.02 80.5431C30.02 79.8498 30.1333 79.2298 30.36 78.6831C30.5867 78.1231 30.9133 77.6498 31.34 77.2631C31.7667 76.8631 32.2867 76.5631 32.9 76.3631C33.5 76.1498 34.18 76.0431 34.94 76.0431C35.18 76.0431 35.3667 76.1298 35.5 76.3031C35.62 76.4631 35.68 76.6965 35.68 77.0031L35.68 83.4231L34.24 83.4231L34.24 77.8031L34.54 78.1231C33.9267 78.1231 33.4133 78.2165 33 78.4031C32.5867 78.5765 32.2733 78.8365 32.06 79.1831C31.8333 79.5165 31.72 79.9365 31.72 80.4431C31.72 81.0031 31.8533 81.4831 32.12 81.8831C32.3733 82.2698 32.74 82.5698 33.22 82.7831C33.6867 82.9831 34.2467 83.0831 34.9 83.0831L35.04 83.0831C36.1333 83.0831 36.9533 82.8298 37.5 82.3231C38.0333 81.8031 38.3 81.0431 38.3 80.0431C38.3 79.6965 38.26 79.3098 38.18 78.8831C38.0867 78.4431 37.9333 78.0298 37.72 77.6431C37.56 77.3631 37.4933 77.1165 37.52 76.9031C37.5333 76.6898 37.6067 76.5231 37.74 76.4031C37.8733 76.2698 38.04 76.1898 38.24 76.1631C38.4267 76.1365 38.62 76.1765 38.82 76.2831C39.02 76.3765 39.1933 76.5431 39.34 76.7831C39.6333 77.2498 39.8533 77.7898 40 78.4031C40.1333 79.0031 40.2 79.5631 40.2 80.0831ZM40.16 72.8233C40.16 73.2233 40.0533 73.5299 39.84 73.7433C39.6133 73.9566 39.2933 74.0633 38.88 74.0633L31.32 74.0633C30.9067 74.0633 30.5933 73.9566 30.38 73.7433C30.1667 73.5299 30.06 73.2299 30.06 72.8433C30.06 72.4566 30.1667 72.1566 30.38 71.9433C30.5933 71.7299 30.9067 71.6233 31.32 71.6233L32.68 71.6233L32.18 71.8433C31.4733 71.5499 30.94 71.0966 30.58 70.4833C30.2067 69.8566 30.02 69.1499 30.02 68.3633C30.02 67.5766 30.1667 66.9299 30.46 66.4233C30.7533 65.9166 31.2 65.5366 31.8 65.2833C32.3867 65.0299 33.1333 64.9033 34.04 64.9033L38.88 64.9033C39.2933 64.9033 39.6133 65.0099 39.84 65.2233C40.0533 65.4366 40.16 65.7433 40.16 66.1433C40.16 66.5433 40.0533 66.8566 39.84 67.0833C39.6133 67.2966 39.2933 67.4033 38.88 67.4033L34.16 67.4033C33.4 67.4033 32.8467 67.5499 32.5 67.8433C32.1533 68.1233 31.98 68.5633 31.98 69.1633C31.98 69.8966 32.2133 70.4833 32.68 70.9233C33.1333 71.3499 33.74 71.5633 34.5 71.5633L38.88 71.5633C39.7333 71.5633 40.16 71.9833 40.16 72.8233Z" fill="#535AF1"/>
</g>
<defs>
<filter id="filter0_d_1854_19299" x="0" y="0" width="74" height="324" filterUnits="userSpaceOnUse" color-interpolation-filters="sRGB">
<feFlood flood-opacity="0" result="BackgroundImageFix"/>
<feColorMatrix in="SourceAlpha" type="matrix" values="0 0 0 0 0 0 0 0 0 0 0 0 0 0 0 0 0 0 127 0" result="hardAlpha"/>
<feOffset dx="4" dy="4"/>
<feGaussianBlur stdDeviation="3.5"/>
<feComposite in2="hardAlpha" operator="out"/>
<feColorMatrix type="matrix" values="0 0 0 0 0 0 0 0 0 0 0 0 0 0 0 0 0 0 0.2 0"/>
<feBlend mode="normal" in2="BackgroundImageFix" result="effect1_dropShadow_1854_19299"/>
<feBlend mode="normal" in="SourceGraphic" in2="effect1_dropShadow_1854_19299" result="shape"/>
</filter>
</defs>
</svg>
